<?xml version="1.0" encoding="utf-8"?>
<!-- Generator: Adobe Illustrator 22.0.1, SVG Export Plug-In . SVG Version: 6.00 Build 0)  -->
<svg version="1.1" id="Layer_1" xmlns="http://www.w3.org/2000/svg" xmlns:xlink="http://www.w3.org/1999/xlink" x="0px" y="0px"
	 viewBox="0 0 1156.9 1636.2" style="enable-background:new 0 0 1156.9 1636.2;" xml:space="preserve">
<style type="text/css">
	.st0{fill:#FFFFFF;}
	.st1{fill:#4F2D84;}
	.st2{fill:url(#SVGID_1_);}
	.st3{fill:url(#SVGID_2_);}
	.st4{fill:url(#SVGID_3_);}
	.st5{fill:url(#SVGID_4_);}
	.st6{fill:url(#SVGID_5_);}
	.st7{fill:url(#SVGID_6_);}
	.st8{fill:url(#SVGID_7_);}
	.st9{fill:url(#SVGID_8_);}
	.st10{fill:url(#SVGID_9_);}
	.st11{fill:#E6E7E7;}
	.st12{opacity:0.24;fill:#FFFFFF;}
	.st13{fill:#38215C;}
	.st14{fill:#A8AAAD;}
	.st15{font-family:'Montserrat-Light';}
	.st16{font-size:18.5903px;}
	.st17{opacity:0.1;}
	.st18{fill:url(#SVGID_10_);}
	.st19{fill:url(#SVGID_11_);}
	.st20{fill:url(#SVGID_12_);}
	.st21{fill:url(#SVGID_13_);}
	.st22{fill:url(#SVGID_14_);}
	.st23{fill:url(#SVGID_15_);}
	.st24{fill:url(#SVGID_16_);}
	.st25{fill:url(#SVGID_17_);}
	.st26{fill:url(#SVGID_18_);}
	.st27{fill:url(#SVGID_19_);}
</style>
<rect class="st0" width="1156.9" height="1636.2"/>
<g>
	<g>
		<g>
			<path class="st1" d="M204.2,169.6c-0.1,0-0.1,0-0.2,0C204.1,169.6,204.1,169.6,204.2,169.6z"/>
			<path class="st1" d="M164.1,146.3c1.4,2.4,3.5,4.9,6,7.2C167.1,150.5,165.2,147.9,164.1,146.3z"/>
			<linearGradient id="SVGID_1_" gradientUnits="userSpaceOnUse" x1="216.188" y1="199.7202" x2="160.4253" y2="148.7695">
				<stop  offset="0" style="stop-color:#A2A8D5"/>
				<stop  offset="1" style="stop-color:#E6E8F5"/>
			</linearGradient>
			<path class="st2" d="M183.8,173.5c-7.4-3.1-13.9-7.1-19-11.4c4.7,12.1,16.4,20.7,30.2,20.7c5.1,0,9.9-1.2,14.1-3.3
				C201.5,179.2,192.7,177.2,183.8,173.5z"/>
			<path class="st1" d="M208.2,170c5.4,0.4,10.2-0.2,13.8-1.8c0,0,0,0,0,0C220.7,168.7,215.7,170.5,208.2,170z"/>
			<path class="st1" d="M163.2,144.5L163.2,144.5c-1.8-3.6-2.1-7.1-0.9-10.1c0.1-0.2,0.2-0.4,0.3-0.6c-1,0.9-1.7,2-2.2,3.2
				c-1.6,3.7-0.6,8.1,2.3,12.6C162.7,147.9,162.9,146.2,163.2,144.5C163.2,144.5,163.2,144.5,163.2,144.5z"/>
			<path class="st1" d="M172.2,127.4c0.6-0.6,1.2-1.1,1.8-1.6c-8.8,0.3-15.5,3-18.3,8.1c2.8-2.9,7.3-4.6,12.8-5.3
				C169.6,128.1,170.8,127.7,172.2,127.4z"/>
			<path class="st1" d="M222.3,168.1c0,0,0,0-0.1,0c-0.1,0-0.2,0.1-0.2,0.1c-0.6,0.9-1.2,1.7-1.9,2.6c2.8-1.2,4.8-2.9,6-5.2
				C225.1,166.6,223.8,167.4,222.3,168.1L222.3,168.1z"/>
			<path class="st1" d="M227.3,152c0.8,1.5,1.3,3,1.5,4.4c3,5,3.9,9.8,2.1,13.9c-0.1,0.3-0.3,0.6-0.5,0.9c1-1,1.8-2.2,2.4-3.5
				c2.3-5.4,0-12.2-5.6-18.7c0,0.4,0,0.8,0,1.3C227.4,150.9,227.4,151.5,227.3,152z"/>
			<path class="st1" d="M183.6,126.9c0-0.2-0.1-0.3-0.1-0.5c-3.4-0.5-6.6-0.7-9.5-0.6c-0.6,0.5-1.2,1.1-1.8,1.6
				C175.5,126.7,179.4,126.5,183.6,126.9z"/>
			<path class="st1" d="M218.2,140.7c-0.1,0.1-0.2,0.2-0.3,0.3c4.3,3.5,7.6,7.3,9.4,11c0-0.5,0-1.1,0-1.7c0-0.4,0-0.8,0-1.3
				C224.9,146.2,221.8,143.4,218.2,140.7z"/>
			<path class="st1" d="M186.3,167.6c13.1,5.6,26.1,6.5,33.8,3.2c0.7-0.8,1.3-1.7,1.9-2.6c-3.6,1.5-8.4,2.2-13.8,1.8
				c-1.3-0.1-2.6-0.2-4-0.4c-0.1,0-0.1,0-0.2,0c0,0,0,0-0.1,0c0,0,0,0,0,0c-1.3-0.2-2.7-0.5-4.1-0.8l-1.2,0.5l-0.8,2l-0.8-2l-2-0.8
				l1.4-0.6c-2.5-0.7-5.1-1.6-7.7-2.7c0,0,0,0,0,0c-8.5-3.3-14.5-7.7-18.6-11.7c-2.5-2.4-4.5-4.8-6-7.2c-0.6-1-0.9-1.6-0.9-1.7
				c-0.3,1.7-0.5,3.4-0.5,5.1C166.9,156.2,175.5,163,186.3,167.6z"/>
			<path class="st1" d="M200.7,131.1c-0.7-0.3-1.4-0.6-2.2-0.8c0,0,0,0,0,0C199.2,130.5,199.9,130.8,200.7,131.1z"/>
			<path class="st1" d="M163.2,156.2c-0.3-1.9-0.5-3.8-0.5-5.8c0-0.3,0-0.5,0-0.8c-2.9-4.5-3.9-8.9-2.3-12.6
				c0.5-1.2,1.3-2.3,2.2-3.2c1.1-2.2,3.2-4,5.9-5.2c-5.5,0.6-10,2.4-12.8,5.3c-0.2,0.3-0.3,0.6-0.5,0.9
				C152.6,141,155.9,148.8,163.2,156.2z"/>
			<path class="st1" d="M228.9,156.5c0.4,2.1,0.2,4.1-0.5,5.9c-0.5,1.2-1.3,2.3-2.2,3.2c-1.2,2.3-3.2,4-6,5.2
				c-1.9,2.3-4.1,4.4-6.6,6.1c7.4-0.1,13.5-2,17-5.5c0.2-0.3,0.3-0.6,0.5-0.9C232.7,166.3,231.8,161.4,228.9,156.5z"/>
			<path class="st1" d="M220.1,170.8c-7.7,3.3-20.6,2.4-33.8-3.2c-10.9-4.6-19.4-11.3-23.7-18c0,0.3,0,0.5,0,0.8
				c0,2,0.2,3.9,0.5,5.8c5.5,5.6,13.3,10.8,22.6,14.7c9.8,4.2,19.6,6.1,27.7,6C216,175.2,218.2,173.1,220.1,170.8z"/>
			<path class="st1" d="M206.4,133.6c-0.8-0.4-1.6-0.8-2.4-1.1C204.9,132.9,205.6,133.3,206.4,133.6
				C206.4,133.7,206.4,133.7,206.4,133.6z"/>
			<linearGradient id="SVGID_2_" gradientUnits="userSpaceOnUse" x1="204.8769" y1="156.5915" x2="190.5732" y2="120.5675">
				<stop  offset="0" style="stop-color:#A2A8D5"/>
				<stop  offset="1" style="stop-color:#E6E8F5"/>
			</linearGradient>
			<ellipse class="st3" cx="192.1" cy="124.5" rx="5.1" ry="3.1"/>
			<linearGradient id="SVGID_3_" gradientUnits="userSpaceOnUse" x1="222.2654" y1="149.6872" x2="207.9618" y2="113.6632">
				<stop  offset="0" style="stop-color:#A2A8D5"/>
				<stop  offset="1" style="stop-color:#E6E8F5"/>
			</linearGradient>
			<path class="st4" d="M214.9,136.1c1.5,1.2,3.3,1.4,4.1,0.5c0.7-0.9,0.1-2.6-1.4-3.8c-1.5-1.2-3.3-1.4-4.1-0.5
				S213.4,135,214.9,136.1z"/>
			<linearGradient id="SVGID_4_" gradientUnits="userSpaceOnUse" x1="217.6908" y1="151.5036" x2="203.3872" y2="115.4796">
				<stop  offset="0" style="stop-color:#A2A8D5"/>
				<stop  offset="1" style="stop-color:#E6E8F5"/>
			</linearGradient>
			<path class="st5" d="M219,157.9c1.5,0,2.6-1.5,2.6-3.3c0-1.8-1.2-3.2-2.7-3.2c-1.5,0-2.6,1.5-2.6,3.3
				C216.3,156.4,217.5,157.9,219,157.9z"/>
			<linearGradient id="SVGID_5_" gradientUnits="userSpaceOnUse" x1="257.2701" y1="154.7582" x2="201.5073" y2="103.8074">
				<stop  offset="0" style="stop-color:#A2A8D5"/>
				<stop  offset="1" style="stop-color:#E6E8F5"/>
			</linearGradient>
			<polygon class="st6" points="231.9,136.4 233.2,132.9 236.7,131.6 233.2,130.2 231.9,126.7 230.5,130.2 227.1,131.6 230.5,132.9 
							"/>
			<linearGradient id="SVGID_6_" gradientUnits="userSpaceOnUse" x1="206.1574" y1="210.6981" x2="150.3947" y2="159.7474">
				<stop  offset="0" style="stop-color:#A2A8D5"/>
				<stop  offset="1" style="stop-color:#E6E8F5"/>
			</linearGradient>
			<polygon class="st7" points="158.1,163 157,165.7 154.3,166.8 157,167.9 158.1,170.6 159.2,167.9 161.9,166.8 159.2,165.7 			"/>
			<path class="st1" d="M217.9,141c0.1-0.1,0.2-0.2,0.3-0.3c3.6,2.7,6.7,5.5,9.2,8.4c-0.7-17.3-14.9-31.1-32.3-31.1
				c-8,0-15.4,2.9-21.1,7.8c3-0.1,6.2,0.1,9.5,0.6c0-0.2,0-0.3,0-0.5c0-3.1,4.1-5.6,9.2-5.6c5.1,0,9.2,2.5,9.2,5.6
				c0,1.8-1.3,3.3-3.3,4.4c0.7,0.3,1.4,0.5,2.2,0.8c-0.7-0.3-1.5-0.6-2.2-0.8c-1.6,0.8-3.6,1.3-5.8,1.3c-4.5,0-8.3-2-9-4.7
				c-4.2-0.4-8.1-0.2-11.4,0.6c-2.3,2.3-4.3,4.9-5.8,7.8c1.5,3.3,4.6,8.4,4.6,8.4c-2.3-2.1-5.5-6.7-5.5-6.7c0,0,0,0,0,0
				c2.8,6.6,8.6,12.5,8.6,12.5c-6-3.9-9.1-8.8-9.1-8.8c2.2,6.4,12.5,14,12.5,14c-7.2-4-12.1-9.1-12.1-9.1
				c5.4,9.2,22.9,19.5,23.2,19.7c2.6,1.1,5.2,2,7.7,2.7l0.6-0.3l0.8-2l0.8,2l2,0.8l-0.8,0.3c1.4,0.3,2.7,0.6,4.1,0.8
				c0.1,0,11.9,0.3,19.4-3.5c0,0,0,0,0,0c-0.1,0-6.8,2.1-11.9,1.8c0,0,9.5-1.5,13-3.8c0,0,0,0,0,0c0,0-5.4,1.4-7.9,1.5
				c0,0,5-1.5,8.6-3.2c1.3-3.2,2.1-6.7,2.2-10.3C225.5,148.3,222.2,144.5,217.9,141z M178.1,134.5l-1.1-2.7l-2.7-1.1l2.7-1.1
				l1.1-2.7l1.1,2.7l2.7,1.1l-2.7,1.1L178.1,134.5z M186.8,144.6l-1.1,2.7l-1.1-2.7l-2.7-1.1l2.7-1.1l1.1-2.7l1.1,2.7l2.7,1.1
				L186.8,144.6z M206.4,133.7c-0.8-0.4-1.6-0.8-2.4-1.1C204.9,132.9,205.6,133.3,206.4,133.7C206.4,133.7,206.4,133.7,206.4,133.7z
				 M210.4,130.9c1.3-1.7,4.6-1.3,7.4,0.9c2.7,2.2,3.9,5.3,2.5,7c-1.3,1.7-4.6,1.3-7.4-0.9C210.2,135.7,209.1,132.5,210.4,130.9z
				 M218.1,160.9c-2.7,0-4.8-2.6-4.9-5.9c0-3.3,2.1-5.9,4.8-6c2.7,0,4.8,2.6,4.9,5.9C222.9,158.2,220.7,160.9,218.1,160.9z"/>
			<linearGradient id="SVGID_7_" gradientUnits="userSpaceOnUse" x1="222.272" y1="193.0616" x2="166.5093" y2="142.1108">
				<stop  offset="0" style="stop-color:#A2A8D5"/>
				<stop  offset="1" style="stop-color:#E6E8F5"/>
			</linearGradient>
			<polygon class="st8" points="213.2,181.9 212.4,184 210.4,184.8 212.4,185.6 213.2,187.6 214,185.6 216,184.8 214,184 			"/>
			<path class="st1" d="M154.3,132.8c-11.9,15.4,8.9,30.5,8.9,30.5l-0.5-2.9C144.8,145.6,154.3,132.8,154.3,132.8z"/>
			<path class="st1" d="M230.8,151c0,0,15.9,20.3-8.9,26.9C221.9,177.9,249.7,174.4,230.8,151z"/>
			<linearGradient id="SVGID_8_" gradientUnits="userSpaceOnUse" x1="255.1178" y1="157.1137" x2="199.355" y2="106.163">
				<stop  offset="0" style="stop-color:#A2A8D5"/>
				<stop  offset="1" style="stop-color:#E6E8F5"/>
			</linearGradient>
			<polygon class="st9" points="206.9,115.9 207.7,113.9 209.7,113.1 207.7,112.2 206.9,110.2 206.1,112.2 204.1,113.1 206.1,113.9 
							"/>
			<linearGradient id="SVGID_9_" gradientUnits="userSpaceOnUse" x1="236.1296" y1="177.8952" x2="180.3669" y2="126.9445">
				<stop  offset="0" style="stop-color:#A2A8D5"/>
				<stop  offset="1" style="stop-color:#E6E8F5"/>
			</linearGradient>
			<polygon class="st10" points="169.9,120.3 170.7,118.2 172.8,117.4 170.7,116.6 169.9,114.6 169.1,116.6 167.1,117.4 
				169.1,118.2 			"/>
		</g>
		<ellipse class="st11" cx="190" cy="188.5" rx="23.4" ry="1.5"/>
	</g>
	<circle class="st12" cx="194" cy="145.9" r="4.1"/>
	<circle class="st12" cx="194" cy="155.4" r="1.9"/>
</g>
<g>
	<g>
		<path class="st13" d="M130.7,222.2h11.4l-0.2,1.3h-12.5v-26.9h1.4V222.2z"/>
		<path class="st13" d="M149.1,195.6c0,0.6-0.4,1.1-1.1,1.1c-0.7,0-1.1-0.5-1.1-1.1c0-0.6,0.4-1.1,1.1-1.1
			C148.7,194.5,149.1,195,149.1,195.6z M148.7,223.5h-1.3v-20.5h1.3V223.5z"/>
		<path class="st13" d="M172.8,213.1c0,6.7-2.6,10.8-7.6,10.8c-2.8,0-4.9-1.5-6.2-3.2l-0.2,2.8h-1.1v-29l1.3-0.2V206
			c1.5-2,3.6-3.5,6.4-3.5C170.2,202.5,172.8,206.3,172.8,213.1z M171.4,213.1c0-6.2-2.1-9.3-6-9.3c-2.9,0-4.7,1.5-6.4,3.8v11.5
			c1.4,2.1,3.4,3.6,6.1,3.6C169.2,222.7,171.4,219.3,171.4,213.1z"/>
		<path class="st13" d="M194.1,213.9h-14.2c0.3,6.1,3.2,8.8,7.1,8.8c2.4,0,3.9-0.8,5.7-2.2l0.7,0.9c-1.8,1.5-3.8,2.4-6.4,2.4
			c-5.2,0-8.5-3.9-8.5-10.5c0-6.7,3.2-10.9,8-10.9c5.2,0,7.7,3.9,7.7,9.8C194.2,212.9,194.1,213.5,194.1,213.9z M192.8,211.8
			c0-4.8-1.9-8.1-6.3-8.1c-3.5,0-6.5,2.7-6.7,9h13V211.8z"/>
		<path class="st13" d="M210.5,202.7l-0.3,1.2c-0.5-0.2-1.1-0.2-1.8-0.2c-3,0-4.7,2.2-5.9,6.6v13.1h-1.3v-20.5h1.1l0.1,4.9
			c1.1-3.6,3-5.3,6-5.3C209.4,202.5,210,202.6,210.5,202.7z"/>
		<path class="st13" d="M227.9,222.9l-0.3,0.9c-1.6-0.4-2.5-1.4-2.6-3.7c-1.5,2.4-3.6,3.7-6.6,3.7c-3.9,0-6.2-2.4-6.2-6.1
			c0-4.3,3.2-6.6,8.1-6.6h4.5v-2.3c0-3.5-1.3-5.2-5.1-5.2c-1.8,0-3.6,0.5-5.6,1.3l-0.4-1.1c2.1-0.9,4-1.4,6-1.4
			c4.5,0,6.4,2.2,6.4,6.3v10.3C226.2,221.7,226.8,222.5,227.9,222.9z M224.9,218.7v-6.3h-4.2c-4.3,0-7,1.8-7,5.4
			c0,3.1,1.9,4.9,4.9,4.9C221.5,222.7,223.5,221.1,224.9,218.7z"/>
		<path class="st13" d="M243.8,222.7c-1.1,0.7-2.5,1.2-4.1,1.2c-2.8,0-4.7-1.7-4.7-5.1v-14.7h-3.4v-1.1h3.4v-5.1l1.3-0.1v5.3h5.6
			l-0.2,1.1h-5.4v14.6c0,2.6,1.1,4,3.4,4c1.3,0,2.4-0.4,3.4-1L243.8,222.7z"/>
		<path class="st13" d="M261.5,213.9h-14.2c0.3,6.1,3.2,8.8,7.1,8.8c2.4,0,3.9-0.8,5.7-2.2l0.7,0.9c-1.8,1.5-3.8,2.4-6.4,2.4
			c-5.2,0-8.5-3.9-8.5-10.5c0-6.7,3.2-10.9,8-10.9c5.2,0,7.7,3.9,7.7,9.8C261.6,212.9,261.6,213.5,261.5,213.9z M260.3,211.8
			c0-4.8-1.9-8.1-6.3-8.1c-3.5,0-6.5,2.7-6.7,9h13V211.8z"/>
		<path class="st13" d="M146.6,234l-3,3.5c-1.9-1.5-3.8-2.3-6-2.3c-2.3,0-3.7,0.9-3.7,2.7c0,1.7,1,2.4,5.3,3.8
			c5.2,1.7,8.1,3.8,8.1,8.8c0,5.1-4,8.7-10.9,8.7c-4.7,0-8.1-1.7-10.4-3.9l3.3-3.6c2,1.7,4.2,2.7,6.9,2.7c2.7,0,4.3-1.3,4.3-3.4
			c0-2-1-2.9-5-4.1c-6.1-1.9-8.4-4.4-8.4-8.5c0-4.8,4.2-7.9,9.9-7.9C141.3,230.4,144.2,231.7,146.6,234z"/>
		<path class="st13" d="M167.1,239.4l-2.7,3.7c-1.3-1-2.6-1.5-4-1.5c-2.7,0-4.2,1.8-4.2,6.5c0,4.7,1.7,6.1,4.1,6.1
			c1.5,0,2.5-0.5,4-1.4l2.7,3.9c-1.9,1.5-4.2,2.5-7.1,2.5c-6.4,0-10.4-4.3-10.4-11c0-6.7,4-11.3,10.3-11.3
			C162.8,236.8,165.1,237.7,167.1,239.4z"/>
		<path class="st13" d="M176.5,230c0,2-1.5,3.6-3.7,3.6c-2.2,0-3.7-1.5-3.7-3.6c0-2,1.5-3.6,3.7-3.6C175,226.4,176.5,228,176.5,230z
			 M176,258.5h-6.2v-21h6.2V258.5z"/>
		<path class="st13" d="M199,249.8h-13c0.4,3.8,2.2,4.8,4.8,4.8c1.7,0,3.2-0.6,5-1.9l2.6,3.5c-2.1,1.7-4.8,2.9-8.2,2.9
			c-7,0-10.5-4.5-10.5-11.1c0-6.3,3.4-11.3,9.8-11.3c6,0,9.7,4,9.7,10.7C199.2,248.3,199.1,249.2,199,249.8z M193,245.8
			c0-2.8-0.9-4.8-3.4-4.8c-2.1,0-3.3,1.3-3.6,5.1h7V245.8z"/>
		<path class="st13" d="M220.8,243.2v15.3h-6.2v-14.3c0-2.2-0.8-2.8-2-2.8c-1.4,0-2.5,1-3.6,2.7v14.3h-6.2v-21h5.5l0.4,2.5
			c1.8-2.1,3.8-3.2,6.4-3.2C218.6,236.8,220.8,239.2,220.8,243.2z"/>
		<path class="st13" d="M241.8,239.4l-2.7,3.7c-1.3-1-2.6-1.5-4-1.5c-2.7,0-4.2,1.8-4.2,6.5c0,4.7,1.7,6.1,4.1,6.1
			c1.5,0,2.5-0.5,4-1.4l2.7,3.9c-1.9,1.5-4.2,2.5-7.1,2.5c-6.4,0-10.4-4.3-10.4-11c0-6.7,4-11.3,10.3-11.3
			C237.5,236.8,239.7,237.7,241.8,239.4z"/>
		<path class="st13" d="M261.8,249.8h-13c0.4,3.8,2.2,4.8,4.8,4.8c1.7,0,3.2-0.6,5-1.9l2.6,3.5c-2.1,1.7-4.8,2.9-8.2,2.9
			c-7,0-10.5-4.5-10.5-11.1c0-6.3,3.4-11.3,9.8-11.3c6,0,9.7,4,9.7,10.7C261.9,248.3,261.9,249.2,261.8,249.8z M255.8,245.8
			c0-2.8-0.9-4.8-3.4-4.8c-2.1,0-3.3,1.3-3.6,5.1h7V245.8z"/>
	</g>
</g>
<rect x="124.5" y="278.2" class="st14" width="902.8" height="1.9"/>
<g>
	<text transform="matrix(1 0 0 1 838.7941 134.0485)"><tspan x="0" y="0" class="st14 st15 st16">123 456 789</tspan><tspan x="0" y="37.2" class="st14 st15 st16">yourmail@mail.com</tspan><tspan x="0" y="74.4" class="st14 st15 st16">yourweb.com</tspan><tspan x="0" y="111.5" class="st14 st15 st16">Your Address 76</tspan></text>
	<path class="st1" d="M826.2,232.8c-0.9-0.9-1.9-1.6-3.1-2.1c-1.2-0.5-2.5-0.8-3.9-0.8c-0.9,0-1.8,0.1-2.6,0.4
		c-0.8,0.2-1.6,0.6-2.4,1c-0.7,0.4-1.4,0.9-2,1.5c-0.6,0.6-1.1,1.3-1.5,2c-0.4,0.7-0.8,1.5-1,2.4c-0.2,0.8-0.4,1.7-0.4,2.6
		c0,0.9,0.1,1.8,0.4,2.6c0.2,0.8,0.6,1.6,1,2.4c0.4,0.7,0.9,1.4,1.5,2c0.3,0.3,0.7,0.6,1,0.9l0,0l6,5.4l6-5.4l0,0
		c0.4-0.3,0.7-0.6,1-0.9c0.6-0.6,1.1-1.3,1.5-2c0.4-0.7,0.8-1.5,1-2.4c0.2-0.8,0.4-1.7,0.4-2.6c0-1.4-0.3-2.6-0.8-3.9
		C827.8,234.7,827.1,233.7,826.2,232.8z M819.6,243.5c-2.2,0-4-1.8-4-4c0-2.2,1.8-4,4-4c2.2,0,4,1.8,4,4
		C823.6,241.7,821.8,243.5,819.6,243.5z"/>
	<path class="st1" d="M814.3,212.9c1.3,0.5,2.6,0.8,4,0.8c1.4,0,2.7-0.3,4-0.8c2.6-1.1,4.4-2.9,5.5-5.5c0.5-1.3,0.8-2.6,0.8-4
		c0-1.4-0.3-2.7-0.8-4c-1.1-2.5-2.9-4.4-5.5-5.5c-1.3-0.5-2.6-0.8-4-0.8c-1.4,0-2.7,0.3-4,0.8c-2.5,1.1-4.4,2.9-5.5,5.5
		c-0.5,1.3-0.8,2.6-0.8,4c0,1.4,0.3,2.7,0.8,4C809.9,209.9,811.8,211.8,814.3,212.9z M821.8,211.8c0.9-1.1,1.5-2.6,2-4.3h2.7
		C825.5,209.4,823.8,210.9,821.8,211.8z M827.4,203.4c0,1-0.1,1.9-0.4,2.8h-3c0.1-1,0.2-1.9,0.2-2.8c0-0.9-0.1-1.9-0.2-2.8h3
		C827.3,201.4,827.4,202.4,827.4,203.4z M826.4,199.3h-2.7c-0.4-1.7-1.1-3.2-2-4.3C823.8,195.8,825.4,197.4,826.4,199.3z M819,194.4
		c0.7,0.2,1.4,0.7,2,1.6c0.6,0.9,1.1,2,1.4,3.2H819V194.4z M819,200.5h3.7c0.2,0.9,0.2,1.9,0.2,2.8c0,0.9-0.1,1.8-0.2,2.8H819V200.5
		z M819,207.4h3.5c-0.3,1.3-0.8,2.4-1.4,3.3c-0.6,0.9-1.3,1.4-2,1.6V207.4z M810.3,207.4h2.7c0.4,1.8,1.1,3.2,2,4.3
		C812.9,210.9,811.2,209.4,810.3,207.4z M817.7,212.3c-0.7-0.2-1.4-0.8-2-1.6c-0.6-0.9-1.1-2-1.4-3.3h3.5V212.3z M817.7,206.2H814
		c-0.1-1-0.2-1.9-0.2-2.8c0-0.9,0.1-1.9,0.2-2.8h3.7V206.2z M817.7,194.4v4.9h-3.5c0.3-1.3,0.8-2.4,1.4-3.2
		C816.3,195.2,817,194.6,817.7,194.4z M814.9,195c-0.9,1.1-1.5,2.6-2,4.3h-2.7C811.3,197.4,812.9,195.8,814.9,195z M809.8,200.5h3
		c-0.1,1-0.2,1.9-0.2,2.8c0,0.9,0.1,1.9,0.2,2.8h-3c-0.3-0.9-0.4-1.9-0.4-2.8C809.3,202.4,809.5,201.4,809.8,200.5z"/>
	<g>
		<path class="st1" d="M814.4,167.5c0,0,0-0.1,0-0.1c0-0.1,0-0.1-0.1-0.1l-5.3-3c-0.1,0-0.1,0-0.2,0c-0.1,0-0.1,0-0.1,0.1v7.9
			c0,0.1,0,0.1,0.1,0.1h0.1c0,0,0.1,0,0.1,0L814.4,167.5z"/>
		<path class="st1" d="M827.3,164.1l-5,3c-0.1,0-0.1,0-0.1,0.1c0,0,0,0.1,0,0.1l5,5.4c0,0,0.1,0.1,0.1,0.1h0.1
			c0.1-0.1,0.1-0.1,0.1-0.1v-8.4c0,0,0-0.1-0.1-0.1H827.3z"/>
		<path class="st1" d="M820.8,168.1c0-0.1-0.1-0.1-0.2,0l-2,1.2c-0.2,0.1-0.5,0.1-0.8,0l-1.8-1c-0.1,0-0.1,0-0.2,0l-6.8,6.3
			c0,0,0,0.1,0,0.1c0,0,0,0.1,0.1,0.1c0.1,0.1,0.2,0.1,0.3,0.1h17.3c0.1,0,0.1,0,0.1-0.1c0-0.1,0-0.2,0-0.2L820.8,168.1z"/>
		<path class="st1" d="M827,159.6h-17.5c-0.2,0-0.3,0.1-0.4,0.2c-0.1,0.1-0.2,0.3-0.2,0.5v2c0,0.1,0,0.1,0.1,0.1l9.2,5.2l0.1,0
			c0,0,0.1,0,0.1,0l8.9-5.2c0,0,0.1,0,0.1,0c0,0,0.1,0,0.1,0c0.1,0,0.1,0,0.1-0.1v-1.9c0-0.2-0.1-0.4-0.2-0.5
			C827.3,159.7,827.1,159.6,827,159.6z"/>
	</g>
	<path class="st1" d="M827.8,132.5c-0.2-0.7-1-1.4-1.7-1.6l-2.5-0.7c-0.7-0.2-1.7,0.1-2.2,0.6l-0.9,0.9c-3.3-0.9-5.9-3.5-6.8-6.8
		l0.9-0.9c0.5-0.5,0.8-1.5,0.6-2.2l-0.7-2.5c-0.2-0.7-0.9-1.4-1.6-1.7l-0.3-0.1c-0.7-0.2-1.6,0-2.1,0.5l-1.4,1.4
		c-0.2,0.2-0.4,0.9-0.4,0.9c0,4.3,1.7,8.5,4.7,11.6c3.1,3.1,7.2,4.8,11.6,4.7c0,0,0.7-0.2,1-0.4l1.4-1.4c0.5-0.5,0.7-1.5,0.5-2.1
		L827.8,132.5z"/>
</g>
<g class="st17">
	<g>
		<g>
			<path class="st1" d="M651.4,958c-0.4-0.1-0.8-0.1-1.2-0.2C650.7,957.9,651.1,958,651.4,958z"/>
			<path class="st1" d="M363.4,790.3c10.4,17.4,24.9,35,42.9,51.9C384.7,821.2,370.9,802.2,363.4,790.3z"/>
			<linearGradient id="SVGID_10_" gradientUnits="userSpaceOnUse" x1="737.9807" y1="1174.9189" x2="336.8481" y2="808.4018">
				<stop  offset="0" style="stop-color:#A2A8D5"/>
				<stop  offset="1" style="stop-color:#E6E8F5"/>
			</linearGradient>
			<path class="st18" d="M505.3,986.1c-53.3-22.6-99.9-51.2-136.8-82.2c33.7,87,118.2,148.7,217.1,148.7c36.5,0,71-8.4,101.8-23.4
				C632.6,1027.4,569.2,1013.3,505.3,986.1z"/>
			<path class="st1" d="M680.6,961.2c38.9,2.6,73.2-1.7,99.2-12.8c0,0,0-0.1,0-0.1C770.5,952,734.6,964.5,680.6,961.2z"/>
			<path class="st1" d="M356.6,777.8L356.6,777.8c-12.6-26-15.4-51.2-6.3-72.8c0.6-1.4,1.3-2.8,2-4.2c-6.9,6.6-12.2,14.2-15.9,22.8
				c-11.3,26.6-4.4,58.6,16.5,90.8C353.2,802,354.5,789.8,356.6,777.8C356.7,777.8,356.6,777.8,356.6,777.8z"/>
			<path class="st1" d="M421.4,654.9c4.1-4.1,8.4-8,12.8-11.8c-63,1.9-111.7,21.7-131.6,58.4c20.3-20.5,52.5-33.3,92.1-37.9
				C402.8,660,411.8,657.1,421.4,654.9z"/>
			<path class="st1" d="M782.2,947.3c0,0-0.3,0.1-0.8,0.3c-0.6,0.3-1.1,0.5-1.7,0.8c-4.2,6.4-8.8,12.6-13.6,18.5
				c19.9-8.6,34.9-21.1,43.3-37.6C802,936.5,792.8,942.5,782.2,947.3L782.2,947.3z"/>
			<path class="st1" d="M818.1,831.8c5.5,10.9,9.2,21.6,11.1,32c21.3,35.7,27.8,70.8,15.3,100.3c-1,2.3-2.1,4.6-3.3,6.8
				c7.4-7.4,13.2-15.9,17.2-25.4c16.5-39-0.1-87.6-40.2-134.7c0.1,3,0.2,6,0.2,9C818.4,823.9,818.3,827.9,818.1,831.8z"/>
			<path class="st1" d="M503.5,650.9c-0.3-1.1-0.6-2.3-0.7-3.5c-24.1-3.5-47.2-4.9-68.6-4.3c-4.4,3.8-8.7,7.7-12.8,11.8
				C445.1,649.5,473,648.1,503.5,650.9z"/>
			<path class="st1" d="M752.2,750.4c-0.5,0.8-1.2,1.5-2,2.1c31.1,25.3,54.5,52.7,67.8,79.3c0.2-4,0.3-7.9,0.3-11.9c0-3-0.1-6-0.2-9
				C800.5,790.1,778.3,769.6,752.2,750.4z"/>
			<path class="st1" d="M523.3,943.8c94.3,40,187.5,46.9,242.9,23.1c4.8-5.9,9.4-12.1,13.6-18.5c-26,11.1-60.3,15.5-99.2,12.8
				c-9.2-0.6-18.9-1.6-29.1-3.2c-0.4-0.1-0.8-0.1-1.2-0.2c-0.2,0-0.3,0-0.5-0.1c0,0,0,0,0,0c-9.6-1.5-19.3-3.3-29.2-5.5l-8.6,3.4
				l-5.8,14.7l-5.8-14.7l-14.7-5.8l10-4c-18.2-5.2-36.8-11.7-55.5-19.4c0,0,0,0,0,0c-61.2-23.4-104.7-55.7-133.9-84.2
				c-18-17-32.5-34.5-42.9-51.9c-4.5-7.2-6.7-11.7-6.8-12.5c-2.2,11.9-3.4,24.1-3.7,36.6C383.7,862.2,445,910.6,523.3,943.8z"/>
			<path class="st1" d="M626.2,681.2c-5.2-2.1-10.4-4.1-15.6-6c0,0-0.1,0-0.1,0.1C615.7,677.2,621,679.2,626.2,681.2z"/>
			<path class="st1" d="M356.6,861.6c-2.4-13.5-3.7-27.5-3.7-41.7c0-1.8,0-3.6,0.1-5.4c-20.9-32.3-27.7-64.2-16.5-90.8
				c3.6-8.6,9-16.2,15.9-22.8c8.2-16.2,22.9-28.6,42.3-37.2c-39.6,4.7-71.8,17.4-92.1,37.9c-1.2,2.2-2.3,4.5-3.3,6.8
				C280.6,752.4,304.3,809,356.6,861.6z"/>
			<path class="st1" d="M829.2,863.8c2.8,15.1,1.7,29.5-3.9,42.6c-3.7,8.6-9,16.2-15.9,22.9c-8.4,16.4-23.4,29-43.3,37.6
				c-13.6,16.7-29.6,31.5-47.3,43.9c53.5-0.9,97.2-14.3,122.4-39.9c1.2-2.2,2.3-4.5,3.3-6.8C857,934.6,850.5,899.5,829.2,863.8z"/>
			<path class="st1" d="M766.1,966.9c-55.3,23.8-148.5,16.9-242.9-23.1c-78.2-33.2-139.5-81.6-170.3-129.3c0,1.8-0.1,3.6-0.1,5.4
				c0,14.2,1.3,28.2,3.7,41.7c39.7,40,96,77.7,162.6,106c70.8,30,141.1,44.2,199.6,43.3C736.5,998.4,752.5,983.6,766.1,966.9z"/>
			<path class="st1" d="M667.7,699.6c-5.6-2.7-11.2-5.4-17-8c5.8,2.6,11.4,5.3,16.9,8.1C667.6,699.7,667.6,699.6,667.7,699.6z"/>
			<linearGradient id="SVGID_11_" gradientUnits="userSpaceOnUse" x1="656.6132" y1="864.6699" x2="553.7192" y2="605.5294">
				<stop  offset="0" style="stop-color:#A2A8D5"/>
				<stop  offset="1" style="stop-color:#E6E8F5"/>
			</linearGradient>
			<ellipse class="st19" cx="564.9" cy="633.8" rx="36.3" ry="22.3"/>
			<linearGradient id="SVGID_12_" gradientUnits="userSpaceOnUse" x1="781.6987" y1="815.0036" x2="678.8047" y2="555.8631">
				<stop  offset="0" style="stop-color:#A2A8D5"/>
				<stop  offset="1" style="stop-color:#E6E8F5"/>
			</linearGradient>
			<path class="st20" d="M728.6,717.6c10.8,8.6,23.8,10.2,29.1,3.6c5.3-6.6,0.9-19-9.9-27.6c-10.8-8.6-23.8-10.2-29.1-3.6
				C713.4,696.6,717.9,709,728.6,717.6z"/>
			<linearGradient id="SVGID_13_" gradientUnits="userSpaceOnUse" x1="748.7913" y1="828.0698" x2="645.8973" y2="568.9293">
				<stop  offset="0" style="stop-color:#A2A8D5"/>
				<stop  offset="1" style="stop-color:#E6E8F5"/>
			</linearGradient>
			<path class="st21" d="M757.9,873.9c10.5-0.1,19-10.6,18.9-23.6c-0.1-12.9-8.7-23.4-19.3-23.3c-10.5,0.1-19,10.6-18.9,23.6
				C738.7,863.6,747.3,874,757.9,873.9z"/>
			<linearGradient id="SVGID_14_" gradientUnits="userSpaceOnUse" x1="1033.507" y1="851.4818" x2="632.3743" y2="484.9647">
				<stop  offset="0" style="stop-color:#A2A8D5"/>
				<stop  offset="1" style="stop-color:#E6E8F5"/>
			</linearGradient>
			<polygon class="st22" points="850.8,719.3 860.7,694.5 885.6,684.6 860.7,674.7 850.8,649.9 841,674.7 816.1,684.6 841,694.5 			
				"/>
			<linearGradient id="SVGID_15_" gradientUnits="userSpaceOnUse" x1="665.825" y1="1253.8893" x2="264.6924" y2="887.3722">
				<stop  offset="0" style="stop-color:#A2A8D5"/>
				<stop  offset="1" style="stop-color:#E6E8F5"/>
			</linearGradient>
			<polygon class="st23" points="320.1,910.9 312.4,930.3 293,938 312.4,945.7 320.1,965.1 327.8,945.7 347.2,938 327.8,930.3 			
				"/>
			<path class="st1" d="M750.3,752.5c0.8-0.6,1.5-1.3,2-2.1c26,19.2,48.3,39.6,66,60.4c-4.8-124.4-107.1-223.7-232.6-223.7
				c-57.8,0-110.8,21.1-151.5,56c21.4-0.6,44.4,0.8,68.6,4.3c-0.2-1.1-0.3-2.3-0.3-3.5c0-22.4,29.6-40.6,66.1-40.6
				c36.5,0,66.1,18.2,66.1,40.6c0,12.6-9.3,23.9-24,31.3c5.2,1.9,10.4,3.9,15.6,6c-5.2-2.1-10.5-4-15.7-5.9
				c-11.4,5.8-26,9.2-41.9,9.2c-32.6,0-59.7-14.6-65.1-33.7c-30.5-2.8-58.4-1.4-82.1,4c-16.6,16.5-30.6,35.4-41.6,56.3
				c10.6,24,33.4,60.7,33.4,60.7c-16.6-15.4-39.5-48.2-39.5-48.3c0,0,0,0,0,0c20,47.3,61.7,89.8,61.7,89.8
				c-43.1-27.8-65.4-63.5-65.4-63.5c15.7,45.8,90.2,100.6,90.2,100.6C408,822,373.4,785,373.4,785c38.6,66.5,165,140.3,166.8,141.4
				c18.6,7.8,37.2,14.2,55.5,19.4l4.7-1.8l5.8-14.7l5.8,14.7l14.7,5.8l-6,2.4c9.9,2.2,19.7,4.1,29.2,5.5c0.6,0,85.4,1.8,139.7-25.4
				c0,0,0,0,0,0c-0.4,0.1-49,15-85.9,13.1c0,0,68.1-10.6,93.2-27.4c0,0,0,0,0,0c-0.4,0.1-38.7,10.3-56.6,11c0,0,36.2-11,61.8-23
				c9.2-23.1,14.8-48.1,16.2-74.2C804.8,805.2,781.4,777.9,750.3,752.5z M464.3,705.6l-7.7-19.4l-19.4-7.7l19.4-7.7l7.7-19.4
				l7.7,19.4l19.4,7.7l-19.4,7.7L464.3,705.6z M526.2,778.7l-7.7,19.4l-7.7-19.4l-19.4-7.7l19.4-7.7l7.7-19.4l7.7,19.4l19.4,7.7
				L526.2,778.7z M667.6,699.7c-5.5-2.8-11.2-5.5-16.9-8.1c5.8,2.6,11.4,5.3,17,8C667.6,699.6,667.6,699.7,667.6,699.7z
				 M696.7,679.6c9.7-12.1,33.4-9.1,53,6.6c19.6,15.7,27.7,38.2,18.1,50.3c-9.7,12.1-33.4,9.1-53-6.6
				C695.1,714.2,687,691.7,696.7,679.6z M751.5,895.5c-19.2,0.2-34.9-18.8-35.1-42.3c-0.2-23.5,15.2-42.8,34.4-42.9
				c19.2-0.2,34.9,18.8,35.1,42.3C786.1,876.1,770.7,895.3,751.5,895.5z"/>
			<linearGradient id="SVGID_16_" gradientUnits="userSpaceOnUse" x1="781.7466" y1="1127.0197" x2="380.6139" y2="760.5025">
				<stop  offset="0" style="stop-color:#A2A8D5"/>
				<stop  offset="1" style="stop-color:#E6E8F5"/>
			</linearGradient>
			<polygon class="st24" points="716.5,1046.9 710.7,1061.6 696,1067.4 710.7,1073.2 716.5,1087.9 722.3,1073.2 737,1067.4 
				722.3,1061.6 			"/>
			<path class="st1" d="M293,693.7C207.1,804.4,356.6,913,356.6,913l-3.8-20.8C224.4,785.7,293,693.7,293,693.7z"/>
			<path class="st1" d="M843,824.3c0,0,114.4,145.8-63.9,193.7C779.2,1017.9,979.3,992.5,843,824.3z"/>
			<linearGradient id="SVGID_17_" gradientUnits="userSpaceOnUse" x1="1018.0244" y1="868.4266" x2="616.8918" y2="501.9095">
				<stop  offset="0" style="stop-color:#A2A8D5"/>
				<stop  offset="1" style="stop-color:#E6E8F5"/>
			</linearGradient>
			<polygon class="st25" points="671.2,572 677,557.3 691.7,551.5 677,545.7 671.2,531 665.3,545.7 650.7,551.5 665.3,557.3 			"/>
			<linearGradient id="SVGID_18_" gradientUnits="userSpaceOnUse" x1="881.4316" y1="1017.9199" x2="480.299" y2="651.4027">
				<stop  offset="0" style="stop-color:#A2A8D5"/>
				<stop  offset="1" style="stop-color:#E6E8F5"/>
			</linearGradient>
			<polygon class="st26" points="405.2,603.3 411.1,588.6 425.7,582.8 411.1,577 405.2,562.3 399.4,577 384.7,582.8 399.4,588.6 			
				"/>
		</g>
		<ellipse class="st11" cx="549.6" cy="1094.5" rx="168.1" ry="10.7"/>
	</g>
	<circle class="st12" cx="578.5" cy="788.1" r="29.2"/>
	<circle class="st12" cx="578.5" cy="856.2" r="13.9"/>
</g>
<linearGradient id="SVGID_19_" gradientUnits="userSpaceOnUse" x1="-371.3553" y1="923.4586" x2="592.3504" y2="923.4586" gradientTransform="matrix(-1 0 0 -1 788.9465 2357.3015)">
	<stop  offset="0" style="stop-color:#A2A8D5"/>
	<stop  offset="1" style="stop-color:#E6E8F5"/>
</linearGradient>
<path class="st27" d="M196.6,1636.2c0,0,847.7-38.2,963.7-404.7v404.7H196.6z"/>
<path class="st0" d="M196.6,1636.2c0,0,826-28.2,963.7-345.5v345.5H196.6z"/>
<path class="st1" d="M196.6,1636.2c0,0,864.3-25.7,963.7-293.9v293.9H196.6z"/>
</svg>
