<?xml version="1.0" encoding="UTF-8" standalone="no"?>
<!-- Generator: Adobe Illustrator 22.0.1, SVG Export Plug-In . SVG Version: 6.00 Build 0)  -->

<svg
   xmlns:dc="http://purl.org/dc/elements/1.1/"
   xmlns:cc="http://creativecommons.org/ns#"
   xmlns:rdf="http://www.w3.org/1999/02/22-rdf-syntax-ns#"
   xmlns:svg="http://www.w3.org/2000/svg"
   xmlns="http://www.w3.org/2000/svg"
   xmlns:sodipodi="http://sodipodi.sourceforge.net/DTD/sodipodi-0.dtd"
   xmlns:inkscape="http://www.inkscape.org/namespaces/inkscape"
   version="1.1"
   id="Layer_1"
   x="0px"
   y="0px"
   viewBox="0 0 136 149"
   xml:space="preserve"
   sodipodi:docname="libscie-logo-purple-transparent-no-text.svg"
   inkscape:version="0.92.4 (unknown)"
   width="136"
   height="149"><metadata
     id="metadata308"><rdf:RDF><cc:Work
         rdf:about=""><dc:format>image/svg+xml</dc:format><dc:type
           rdf:resource="http://purl.org/dc/dcmitype/StillImage" /><dc:title></dc:title></cc:Work></rdf:RDF></metadata><defs
     id="defs306" /><sodipodi:namedview
     pagecolor="#ffffff"
     bordercolor="#666666"
     borderopacity="1"
     objecttolerance="10"
     gridtolerance="10"
     guidetolerance="10"
     inkscape:pageopacity="0"
     inkscape:pageshadow="2"
     inkscape:window-width="1680"
     inkscape:window-height="986"
     id="namedview304"
     showgrid="false"
     inkscape:zoom="3.2637028"
     inkscape:cx="184.3659"
     inkscape:cy="103.72621"
     inkscape:window-x="0"
     inkscape:window-y="27"
     inkscape:window-maximized="1"
     inkscape:current-layer="Layer_1" /><style
     type="text/css"
     id="style2">
	.st0{fill:#FFFFFF;}
	.st1{fill:#4F2D84;}
	.st2{fill:url(#SVGID_1_);}
	.st3{fill:url(#SVGID_2_);}
	.st4{fill:url(#SVGID_3_);}
	.st5{fill:url(#SVGID_4_);}
	.st6{fill:url(#SVGID_5_);}
	.st7{fill:url(#SVGID_6_);}
	.st8{fill:url(#SVGID_7_);}
	.st9{fill:url(#SVGID_8_);}
	.st10{fill:url(#SVGID_9_);}
	.st11{fill:#E6E7E7;}
	.st12{opacity:0.24;fill:#FFFFFF;}
	.st13{fill:#38215C;}
	.st14{fill:#A8AAAD;}
	.st15{font-family:'Montserrat-Light';}
	.st16{font-size:18.5903px;}
	.st17{opacity:0.1;}
	.st18{fill:url(#SVGID_10_);}
	.st19{fill:url(#SVGID_11_);}
	.st20{fill:url(#SVGID_12_);}
	.st21{fill:url(#SVGID_13_);}
	.st22{fill:url(#SVGID_14_);}
	.st23{fill:url(#SVGID_15_);}
	.st24{fill:url(#SVGID_16_);}
	.st25{fill:url(#SVGID_17_);}
	.st26{fill:url(#SVGID_18_);}
	.st27{fill:url(#SVGID_19_);}
</style><g
     id="g115"
     transform="translate(-126,-110.2)"><g
       id="g109"><g
         id="g105"><path
           class="st1"
           d="m 204.2,169.6 c -0.1,0 -0.1,0 -0.2,0 0.1,0 0.1,0 0.2,0 z"
           id="path6"
           inkscape:connector-curvature="0"
           style="fill:#4f2d84" /><path
           class="st1"
           d="m 164.1,146.3 c 1.4,2.4 3.5,4.9 6,7.2 -3,-3 -4.9,-5.6 -6,-7.2 z"
           id="path8"
           inkscape:connector-curvature="0"
           style="fill:#4f2d84" /><linearGradient
           id="SVGID_1_"
           gradientUnits="userSpaceOnUse"
           x1="216.188"
           y1="199.7202"
           x2="160.42529"
           y2="148.7695"><stop
             offset="0"
             style="stop-color:#A2A8D5"
             id="stop10" /><stop
             offset="1"
             style="stop-color:#E6E8F5"
             id="stop12" /></linearGradient><path
           class="st2"
           d="m 183.8,173.5 c -7.4,-3.1 -13.9,-7.1 -19,-11.4 4.7,12.1 16.4,20.7 30.2,20.7 5.1,0 9.9,-1.2 14.1,-3.3 -7.6,-0.3 -16.4,-2.3 -25.3,-6 z"
           id="path15"
           inkscape:connector-curvature="0"
           style="fill:url(#SVGID_1_)" /><path
           class="st1"
           d="m 208.2,170 c 5.4,0.4 10.2,-0.2 13.8,-1.8 0,0 0,0 0,0 -1.3,0.5 -6.3,2.3 -13.8,1.8 z"
           id="path17"
           inkscape:connector-curvature="0"
           style="fill:#4f2d84" /><path
           class="st1"
           d="m 163.2,144.5 v 0 c -1.8,-3.6 -2.1,-7.1 -0.9,-10.1 0.1,-0.2 0.2,-0.4 0.3,-0.6 -1,0.9 -1.7,2 -2.2,3.2 -1.6,3.7 -0.6,8.1 2.3,12.6 0,-1.7 0.2,-3.4 0.5,-5.1 0,0 0,0 0,0 z"
           id="path19"
           inkscape:connector-curvature="0"
           style="fill:#4f2d84" /><path
           class="st1"
           d="m 172.2,127.4 c 0.6,-0.6 1.2,-1.1 1.8,-1.6 -8.8,0.3 -15.5,3 -18.3,8.1 2.8,-2.9 7.3,-4.6 12.8,-5.3 1.1,-0.5 2.3,-0.9 3.7,-1.2 z"
           id="path21"
           inkscape:connector-curvature="0"
           style="fill:#4f2d84" /><path
           class="st1"
           d="m 222.3,168.1 c 0,0 0,0 -0.1,0 -0.1,0 -0.2,0.1 -0.2,0.1 -0.6,0.9 -1.2,1.7 -1.9,2.6 2.8,-1.2 4.8,-2.9 6,-5.2 -1,1 -2.3,1.8 -3.8,2.5 z"
           id="path23"
           inkscape:connector-curvature="0"
           style="fill:#4f2d84" /><path
           class="st1"
           d="m 227.3,152 c 0.8,1.5 1.3,3 1.5,4.4 3,5 3.9,9.8 2.1,13.9 -0.1,0.3 -0.3,0.6 -0.5,0.9 1,-1 1.8,-2.2 2.4,-3.5 2.3,-5.4 0,-12.2 -5.6,-18.7 0,0.4 0,0.8 0,1.3 0.2,0.6 0.2,1.2 0.1,1.7 z"
           id="path25"
           inkscape:connector-curvature="0"
           style="fill:#4f2d84" /><path
           class="st1"
           d="m 183.6,126.9 c 0,-0.2 -0.1,-0.3 -0.1,-0.5 -3.4,-0.5 -6.6,-0.7 -9.5,-0.6 -0.6,0.5 -1.2,1.1 -1.8,1.6 3.3,-0.7 7.2,-0.9 11.4,-0.5 z"
           id="path27"
           inkscape:connector-curvature="0"
           style="fill:#4f2d84" /><path
           class="st1"
           d="m 218.2,140.7 c -0.1,0.1 -0.2,0.2 -0.3,0.3 4.3,3.5 7.6,7.3 9.4,11 0,-0.5 0,-1.1 0,-1.7 0,-0.4 0,-0.8 0,-1.3 -2.4,-2.8 -5.5,-5.6 -9.1,-8.3 z"
           id="path29"
           inkscape:connector-curvature="0"
           style="fill:#4f2d84" /><path
           class="st1"
           d="m 186.3,167.6 c 13.1,5.6 26.1,6.5 33.8,3.2 0.7,-0.8 1.3,-1.7 1.9,-2.6 -3.6,1.5 -8.4,2.2 -13.8,1.8 -1.3,-0.1 -2.6,-0.2 -4,-0.4 -0.1,0 -0.1,0 -0.2,0 0,0 0,0 -0.1,0 0,0 0,0 0,0 -1.3,-0.2 -2.7,-0.5 -4.1,-0.8 l -1.2,0.5 -0.8,2 -0.8,-2 -2,-0.8 1.4,-0.6 c -2.5,-0.7 -5.1,-1.6 -7.7,-2.7 0,0 0,0 0,0 -8.5,-3.3 -14.5,-7.7 -18.6,-11.7 -2.5,-2.4 -4.5,-4.8 -6,-7.2 -0.6,-1 -0.9,-1.6 -0.9,-1.7 -0.3,1.7 -0.5,3.4 -0.5,5.1 4.2,6.5 12.8,13.3 23.6,17.9 z"
           id="path31"
           inkscape:connector-curvature="0"
           style="fill:#4f2d84" /><path
           class="st1"
           d="m 200.7,131.1 c -0.7,-0.3 -1.4,-0.6 -2.2,-0.8 0,0 0,0 0,0 0.7,0.2 1.4,0.5 2.2,0.8 z"
           id="path33"
           inkscape:connector-curvature="0"
           style="fill:#4f2d84" /><path
           class="st1"
           d="m 163.2,156.2 c -0.3,-1.9 -0.5,-3.8 -0.5,-5.8 0,-0.3 0,-0.5 0,-0.8 -2.9,-4.5 -3.9,-8.9 -2.3,-12.6 0.5,-1.2 1.3,-2.3 2.2,-3.2 1.1,-2.2 3.2,-4 5.9,-5.2 -5.5,0.6 -10,2.4 -12.8,5.3 -0.2,0.3 -0.3,0.6 -0.5,0.9 -2.6,6.2 0.7,14 8,21.4 z"
           id="path35"
           inkscape:connector-curvature="0"
           style="fill:#4f2d84" /><path
           class="st1"
           d="m 228.9,156.5 c 0.4,2.1 0.2,4.1 -0.5,5.9 -0.5,1.2 -1.3,2.3 -2.2,3.2 -1.2,2.3 -3.2,4 -6,5.2 -1.9,2.3 -4.1,4.4 -6.6,6.1 7.4,-0.1 13.5,-2 17,-5.5 0.2,-0.3 0.3,-0.6 0.5,-0.9 1.6,-4.2 0.7,-9.1 -2.2,-14 z"
           id="path37"
           inkscape:connector-curvature="0"
           style="fill:#4f2d84" /><path
           class="st1"
           d="m 220.1,170.8 c -7.7,3.3 -20.6,2.4 -33.8,-3.2 -10.9,-4.6 -19.4,-11.3 -23.7,-18 0,0.3 0,0.5 0,0.8 0,2 0.2,3.9 0.5,5.8 5.5,5.6 13.3,10.8 22.6,14.7 9.8,4.2 19.6,6.1 27.7,6 2.6,-1.7 4.8,-3.8 6.7,-6.1 z"
           id="path39"
           inkscape:connector-curvature="0"
           style="fill:#4f2d84" /><path
           class="st1"
           d="m 206.4,133.6 c -0.8,-0.4 -1.6,-0.8 -2.4,-1.1 0.9,0.4 1.6,0.8 2.4,1.1 0,0.1 0,0.1 0,0 z"
           id="path41"
           inkscape:connector-curvature="0"
           style="fill:#4f2d84" /><linearGradient
           id="SVGID_2_"
           gradientUnits="userSpaceOnUse"
           x1="204.87691"
           y1="156.59151"
           x2="190.5732"
           y2="120.5675"><stop
             offset="0"
             style="stop-color:#A2A8D5"
             id="stop43" /><stop
             offset="1"
             style="stop-color:#E6E8F5"
             id="stop45" /></linearGradient><ellipse
           class="st3"
           cx="192.10001"
           cy="124.5"
           rx="5.0999999"
           ry="3.0999999"
           id="ellipse48"
           style="fill:url(#SVGID_2_)" /><linearGradient
           id="SVGID_3_"
           gradientUnits="userSpaceOnUse"
           x1="222.2654"
           y1="149.68719"
           x2="207.96181"
           y2="113.6632"><stop
             offset="0"
             style="stop-color:#A2A8D5"
             id="stop50" /><stop
             offset="1"
             style="stop-color:#E6E8F5"
             id="stop52" /></linearGradient><path
           class="st4"
           d="m 214.9,136.1 c 1.5,1.2 3.3,1.4 4.1,0.5 0.7,-0.9 0.1,-2.6 -1.4,-3.8 -1.5,-1.2 -3.3,-1.4 -4.1,-0.5 -0.8,0.9 -0.1,2.7 1.4,3.8 z"
           id="path55"
           inkscape:connector-curvature="0"
           style="fill:url(#SVGID_3_)" /><linearGradient
           id="SVGID_4_"
           gradientUnits="userSpaceOnUse"
           x1="217.6908"
           y1="151.5036"
           x2="203.38721"
           y2="115.4796"><stop
             offset="0"
             style="stop-color:#A2A8D5"
             id="stop57" /><stop
             offset="1"
             style="stop-color:#E6E8F5"
             id="stop59" /></linearGradient><path
           class="st5"
           d="m 219,157.9 c 1.5,0 2.6,-1.5 2.6,-3.3 0,-1.8 -1.2,-3.2 -2.7,-3.2 -1.5,0 -2.6,1.5 -2.6,3.3 0,1.7 1.2,3.2 2.7,3.2 z"
           id="path62"
           inkscape:connector-curvature="0"
           style="fill:url(#SVGID_4_)" /><linearGradient
           id="SVGID_5_"
           gradientUnits="userSpaceOnUse"
           x1="257.27011"
           y1="154.75819"
           x2="201.50729"
           y2="103.8074"><stop
             offset="0"
             style="stop-color:#A2A8D5"
             id="stop64" /><stop
             offset="1"
             style="stop-color:#E6E8F5"
             id="stop66" /></linearGradient><polygon
           class="st6"
           points="236.7,131.6 233.2,130.2 231.9,126.7 230.5,130.2 227.1,131.6 230.5,132.9 231.9,136.4 233.2,132.9 "
           id="polygon69"
           style="fill:url(#SVGID_5_)" /><linearGradient
           id="SVGID_6_"
           gradientUnits="userSpaceOnUse"
           x1="206.15739"
           y1="210.6981"
           x2="150.3947"
           y2="159.74741"><stop
             offset="0"
             style="stop-color:#A2A8D5"
             id="stop71" /><stop
             offset="1"
             style="stop-color:#E6E8F5"
             id="stop73" /></linearGradient><polygon
           class="st7"
           points="154.3,166.8 157,167.9 158.1,170.6 159.2,167.9 161.9,166.8 159.2,165.7 158.1,163 157,165.7 "
           id="polygon76"
           style="fill:url(#SVGID_6_)" /><path
           class="st1"
           d="m 217.9,141 c 0.1,-0.1 0.2,-0.2 0.3,-0.3 3.6,2.7 6.7,5.5 9.2,8.4 -0.7,-17.3 -14.9,-31.1 -32.3,-31.1 -8,0 -15.4,2.9 -21.1,7.8 3,-0.1 6.2,0.1 9.5,0.6 0,-0.2 0,-0.3 0,-0.5 0,-3.1 4.1,-5.6 9.2,-5.6 5.1,0 9.2,2.5 9.2,5.6 0,1.8 -1.3,3.3 -3.3,4.4 0.7,0.3 1.4,0.5 2.2,0.8 -0.7,-0.3 -1.5,-0.6 -2.2,-0.8 -1.6,0.8 -3.6,1.3 -5.8,1.3 -4.5,0 -8.3,-2 -9,-4.7 -4.2,-0.4 -8.1,-0.2 -11.4,0.6 -2.3,2.3 -4.3,4.9 -5.8,7.8 1.5,3.3 4.6,8.4 4.6,8.4 -2.3,-2.1 -5.5,-6.7 -5.5,-6.7 0,0 0,0 0,0 2.8,6.6 8.6,12.5 8.6,12.5 -6,-3.9 -9.1,-8.8 -9.1,-8.8 2.2,6.4 12.5,14 12.5,14 -7.2,-4 -12.1,-9.1 -12.1,-9.1 5.4,9.2 22.9,19.5 23.2,19.7 2.6,1.1 5.2,2 7.7,2.7 l 0.6,-0.3 0.8,-2 0.8,2 2,0.8 -0.8,0.3 c 1.4,0.3 2.7,0.6 4.1,0.8 0.1,0 11.9,0.3 19.4,-3.5 0,0 0,0 0,0 -0.1,0 -6.8,2.1 -11.9,1.8 0,0 9.5,-1.5 13,-3.8 0,0 0,0 0,0 0,0 -5.4,1.4 -7.9,1.5 0,0 5,-1.5 8.6,-3.2 1.3,-3.2 2.1,-6.7 2.2,-10.3 -1.9,-3.8 -5.2,-7.6 -9.5,-11.1 z m -39.8,-6.5 -1.1,-2.7 -2.7,-1.1 2.7,-1.1 1.1,-2.7 1.1,2.7 2.7,1.1 -2.7,1.1 z m 8.7,10.1 -1.1,2.7 -1.1,-2.7 -2.7,-1.1 2.7,-1.1 1.1,-2.7 1.1,2.7 2.7,1.1 z m 19.6,-10.9 c -0.8,-0.4 -1.6,-0.8 -2.4,-1.1 0.9,0.3 1.6,0.7 2.4,1.1 0,0 0,0 0,0 z m 4,-2.8 c 1.3,-1.7 4.6,-1.3 7.4,0.9 2.7,2.2 3.9,5.3 2.5,7 -1.3,1.7 -4.6,1.3 -7.4,-0.9 -2.7,-2.2 -3.8,-5.4 -2.5,-7 z m 7.7,30 c -2.7,0 -4.8,-2.6 -4.9,-5.9 0,-3.3 2.1,-5.9 4.8,-6 2.7,0 4.8,2.6 4.9,5.9 0,3.3 -2.2,6 -4.8,6 z"
           id="path78"
           inkscape:connector-curvature="0"
           style="fill:#4f2d84" /><linearGradient
           id="SVGID_7_"
           gradientUnits="userSpaceOnUse"
           x1="222.272"
           y1="193.0616"
           x2="166.50929"
           y2="142.11079"><stop
             offset="0"
             style="stop-color:#A2A8D5"
             id="stop80" /><stop
             offset="1"
             style="stop-color:#E6E8F5"
             id="stop82" /></linearGradient><polygon
           class="st8"
           points="210.4,184.8 212.4,185.6 213.2,187.6 214,185.6 216,184.8 214,184 213.2,181.9 212.4,184 "
           id="polygon85"
           style="fill:url(#SVGID_7_)" /><path
           class="st1"
           d="m 154.3,132.8 c -11.9,15.4 8.9,30.5 8.9,30.5 l -0.5,-2.9 c -17.9,-14.8 -8.4,-27.6 -8.4,-27.6 z"
           id="path87"
           inkscape:connector-curvature="0"
           style="fill:#4f2d84" /><path
           class="st1"
           d="m 230.8,151 c 0,0 15.9,20.3 -8.9,26.9 0,0 27.8,-3.5 8.9,-26.9 z"
           id="path89"
           inkscape:connector-curvature="0"
           style="fill:#4f2d84" /><linearGradient
           id="SVGID_8_"
           gradientUnits="userSpaceOnUse"
           x1="255.1178"
           y1="157.11369"
           x2="199.355"
           y2="106.163"><stop
             offset="0"
             style="stop-color:#A2A8D5"
             id="stop91" /><stop
             offset="1"
             style="stop-color:#E6E8F5"
             id="stop93" /></linearGradient><polygon
           class="st9"
           points="209.7,113.1 207.7,112.2 206.9,110.2 206.1,112.2 204.1,113.1 206.1,113.9 206.9,115.9 207.7,113.9 "
           id="polygon96"
           style="fill:url(#SVGID_8_)" /><linearGradient
           id="SVGID_9_"
           gradientUnits="userSpaceOnUse"
           x1="236.12959"
           y1="177.8952"
           x2="180.3669"
           y2="126.9445"><stop
             offset="0"
             style="stop-color:#A2A8D5"
             id="stop98" /><stop
             offset="1"
             style="stop-color:#E6E8F5"
             id="stop100" /></linearGradient><polygon
           class="st10"
           points="172.8,117.4 170.7,116.6 169.9,114.6 169.1,116.6 167.1,117.4 169.1,118.2 169.9,120.3 170.7,118.2 "
           id="polygon103"
           style="fill:url(#SVGID_9_)" /></g><ellipse
         class="st11"
         cx="190"
         cy="188.5"
         rx="23.4"
         ry="1.5"
         id="ellipse107"
         style="fill:#e6e7e7" /></g><circle
       class="st12"
       cx="194"
       cy="145.89999"
       r="4.0999999"
       id="circle111"
       style="opacity:0.23999999;fill:#ffffff" /><circle
       class="st12"
       cx="194"
       cy="155.39999"
       r="1.9"
       id="circle113"
       style="opacity:0.23999999;fill:#ffffff" /></g><linearGradient
     id="SVGID_19_"
     gradientUnits="userSpaceOnUse"
     x1="-371.35529"
     y1="923.45862"
     x2="592.3504"
     y2="923.45862"
     gradientTransform="rotate(180,394.47325,1178.6508)"><stop
       offset="0"
       style="stop-color:#A2A8D5"
       id="stop292" /><stop
       offset="1"
       style="stop-color:#E6E8F5"
       id="stop294" /></linearGradient></svg>