<?xml version="1.0" encoding="UTF-8" standalone="no"?>
<!DOCTYPE svg PUBLIC "-//W3C//DTD SVG 1.1//EN" "http://www.w3.org/Graphics/SVG/1.1/DTD/svg11.dtd">
<svg width="100%" height="100%" viewBox="0 0 256 256" version="1.1" xmlns="http://www.w3.org/2000/svg" xmlns:xlink="http://www.w3.org/1999/xlink" xml:space="preserve" xmlns:serif="http://www.serif.com/" style="fill-rule:evenodd;clip-rule:evenodd;stroke-linejoin:round;stroke-miterlimit:2;">
    <g id="template-hex" serif:id="template hex" transform="matrix(2.84521,0,0,2.84521,-2093.24,-1794.99)">
        <path d="M780.695,631.936L818.742,653.903L818.742,697.837L780.695,719.803L742.647,697.837L742.647,653.903L780.695,631.936Z" style="fill:white;"/>
    </g>
    <g id="template-hex1" serif:id="template hex" transform="matrix(1.73611,0,0,1.73611,317.535,-613.382)">
        <path d="M-171.524,405.414L-171.524,391.038L-109.17,355.038L-46.816,391.038L-46.816,397.695L-49.659,396.558L-51.677,391.125L-53.85,396.558L-59.128,398.731L-53.85,400.749L-51.677,406.182L-49.659,400.749L-46.816,399.693L-46.816,440.264C-48.418,436.414 -51.062,432.06 -55.036,427.139C-55.036,427.139 -30.356,458.649 -68.851,468.893C-68.851,468.893 -52.586,466.846 -46.816,456.859L-46.816,463.038L-109.17,499.038L-171.524,463.038L-171.524,454.695L-169.361,455.576L-167.653,459.767L-165.946,455.576L-161.755,453.868L-165.946,452.161L-167.653,447.97L-169.361,452.161L-171.524,453.042L-171.524,433.77C-165.827,442.056 -158.36,447.477 -158.36,447.477L-159.136,442.975C-164.956,438.163 -168.91,433.487 -171.524,429.102L-171.524,415.327C-169.942,422.065 -165.395,429.278 -158.545,436.268C-158.535,436.331 -158.525,436.393 -158.515,436.456C-149.978,445.148 -137.871,453.22 -123.435,459.273C-108.223,465.793 -94.089,468.748 -81.516,468.592L-80.979,468.583C-69.712,468.334 -59.731,465.055 -54.126,459.977C-53.013,458.969 -52.784,458.777 -52.281,458.026C-51.648,457.081 -51.012,455.793 -50.326,454.306C-46.779,445.98 -50.151,435.256 -58.717,425.224C-59.908,398.522 -81.821,377.245 -108.686,377.161L-108.844,377.161C-121.242,377.161 -132.711,381.648 -141.553,389.231C-155.187,389.706 -165.661,393.935 -170.002,401.841C-170.312,402.307 -170.467,402.773 -170.778,403.238C-171.076,403.95 -171.325,404.676 -171.524,405.414ZM-86.618,477.254L-83.513,478.495L-82.272,481.6L-81.03,478.495L-77.925,477.254L-81.03,476.012L-82.272,472.752L-83.513,476.012L-86.618,477.254ZM-126.384,463.309C-112.57,469.052 -98.91,472.157 -87.113,472.622C-93.632,475.882 -101.083,477.745 -108.999,477.745C-130.42,477.745 -148.581,464.396 -155.876,445.614C-147.96,452.288 -137.871,458.497 -126.384,463.309ZM-101.711,456.081L-101.722,456.079L-100.094,455.43L-103.256,454.306L-104.498,451.202L-105.74,454.158L-107.792,455.031L-108.999,455.548L-105.895,456.79L-104.653,459.894L-103.411,456.79L-101.711,456.081ZM-67.09,455.082L-66.624,454.927C-64.298,453.842 -61.908,452.378 -60.356,450.828C-59.047,449.474 -57.892,447.846 -57.155,446.08C-56.086,443.33 -55.768,440.279 -56.351,437.075C-56.611,435.643 -56.742,434.68 -57.142,433.541C-57.543,432.401 -57.615,432.274 -58.712,430.22C-58.882,435.763 -60.12,441.15 -62.122,446.08C-67.71,448.718 -75.472,451.047 -75.472,451.047C-71.591,450.891 -63.209,448.718 -63.209,448.718C-68.642,452.288 -83.388,454.617 -83.388,454.617C-75.472,455.082 -65.072,451.823 -64.916,451.823C-74.61,456.734 -89.187,457.313 -93.883,457.369C-92.023,457.606 -90.267,457.741 -88.51,457.876C-76.869,458.653 -69.108,455.859 -67.09,455.082ZM-139.456,391.125C-140.808,391.295 -143.142,391.487 -144.39,391.752L-144.388,391.75C-146.396,392.222 -148.599,392.917 -150.133,393.615C-154.324,395.477 -157.584,398.271 -159.291,401.686C-159.446,401.997 -159.602,402.307 -159.757,402.618C-161.616,407.265 -161.21,412.576 -158.431,418.152C-158.431,418.152 -157.891,419.543 -156.963,421.089C-154.635,424.814 -151.53,428.54 -147.65,432.265C-141.33,438.43 -132.103,445.208 -119.055,450.317C-122.609,448.158 -146.808,433.336 -154.635,420.002C-154.635,420.002 -147.029,427.919 -135.853,434.128C-135.853,434.128 -151.841,422.331 -155.256,412.396C-155.256,412.396 -150.444,420.002 -141.13,426.056C-141.13,426.056 -150.133,416.898 -154.479,406.653C-154.479,406.653 -149.512,413.793 -145.942,417.053C-145.942,417.053 -150.754,409.137 -153.082,404.015C-150.754,399.513 -147.98,395.852 -144.41,392.281C-143.228,391.795 -140.682,391.374 -139.456,391.125ZM-120.536,417.203L-123.108,416.175L-125.289,415.302L-127.055,410.549L-128.956,415.302L-133.573,417.203L-128.956,418.968L-127.055,423.721L-125.289,418.968L-120.536,417.203ZM-123.622,395.568L-127.814,393.891L-129.372,389.699L-131.048,393.891L-135.121,395.568L-131.048,397.126L-129.372,401.318L-127.814,397.126L-123.622,395.568ZM-169.951,401.789L-169.952,401.79L-169.944,401.783L-169.951,401.789ZM-169.899,401.736L-169.9,401.737L-169.899,401.736L-169.899,401.736ZM-139.599,381.8L-142.859,380.558L-144.101,377.453L-145.343,380.558L-148.447,381.8L-145.343,383.041L-144.101,386.301L-142.859,383.041L-139.599,381.8ZM-87.113,371.677L-90.218,370.28L-91.459,367.175L-92.701,370.28L-95.806,371.677L-92.701,372.918L-91.459,376.023L-90.218,372.918L-87.113,371.677Z" style="fill:rgb(79,45,132);"/>
    </g>
</svg>
