<?xml version="1.0" encoding="UTF-8" standalone="no"?>
<!DOCTYPE svg PUBLIC "-//W3C//DTD SVG 1.1//EN" "http://www.w3.org/Graphics/SVG/1.1/DTD/svg11.dtd">
<svg width="100%" height="100%" viewBox="0 0 945 945" version="1.1" xmlns="http://www.w3.org/2000/svg" xmlns:xlink="http://www.w3.org/1999/xlink" xml:space="preserve" xmlns:serif="http://www.serif.com/" style="fill-rule:evenodd;clip-rule:evenodd;stroke-linejoin:round;stroke-miterlimit:2;">
    <g id="blue" transform="matrix(1,0,0,1,59.6871,-127.559)">
        <g id="template-hex" serif:id="template hex" transform="matrix(6.8285,0,0,6.8285,-4918.22,-4015.18)">
            <path d="M780.695,631.936L818.742,653.903L818.742,697.837L780.695,719.803L742.647,697.837L742.647,653.903L780.695,631.936Z" style="fill:rgb(69,120,188);"/>
        </g>
        <g id="template-hex1" serif:id="template hex" transform="matrix(3.82464,0,0,3.82464,830.291,-1033.27)">
            <path d="M-171.524,405.414L-171.524,391.038L-109.17,355.038L-46.816,391.038L-46.816,397.695L-49.659,396.558L-51.677,391.125L-53.85,396.558L-59.128,398.731L-53.85,400.749L-51.677,406.182L-49.659,400.749L-46.816,399.693L-46.816,440.264C-48.418,436.414 -51.062,432.06 -55.036,427.139C-55.036,427.139 -30.356,458.649 -68.851,468.893C-68.851,468.893 -52.586,466.846 -46.816,456.859L-46.816,463.038L-109.17,499.038L-171.524,463.038L-171.524,454.695L-169.361,455.576L-167.653,459.767L-165.946,455.576L-161.755,453.868L-165.946,452.161L-167.653,447.97L-169.361,452.161L-171.524,453.042L-171.524,433.77C-165.827,442.056 -158.36,447.477 -158.36,447.477L-159.136,442.975C-164.956,438.163 -168.91,433.487 -171.524,429.102L-171.524,415.327C-169.942,422.065 -165.395,429.278 -158.545,436.268C-158.535,436.331 -158.525,436.393 -158.515,436.456C-149.978,445.148 -137.871,453.22 -123.435,459.273C-108.223,465.793 -94.089,468.748 -81.516,468.592L-80.979,468.583C-69.712,468.334 -59.731,465.055 -54.126,459.977C-53.013,458.969 -52.784,458.777 -52.281,458.026C-51.648,457.081 -51.012,455.793 -50.326,454.306C-46.779,445.98 -50.151,435.256 -58.717,425.224C-59.908,398.522 -81.821,377.245 -108.686,377.161L-108.844,377.161C-121.242,377.161 -132.711,381.648 -141.553,389.231C-155.187,389.706 -165.661,393.935 -170.002,401.841C-170.312,402.307 -170.467,402.773 -170.778,403.238C-171.076,403.95 -171.325,404.676 -171.524,405.414ZM-86.618,477.254L-83.513,478.495L-82.272,481.6L-81.03,478.495L-77.925,477.254L-81.03,476.012L-82.272,472.752L-83.513,476.012L-86.618,477.254ZM-126.384,463.309C-112.57,469.052 -98.91,472.157 -87.113,472.622C-93.632,475.882 -101.083,477.745 -108.999,477.745C-130.42,477.745 -148.581,464.396 -155.876,445.614C-147.96,452.288 -137.871,458.497 -126.384,463.309ZM-101.711,456.081L-101.722,456.079L-100.094,455.43L-103.256,454.306L-104.498,451.202L-105.74,454.158L-107.792,455.031L-108.999,455.548L-105.895,456.79L-104.653,459.894L-103.411,456.79L-101.711,456.081ZM-67.09,455.082L-66.624,454.927C-64.298,453.842 -61.908,452.378 -60.356,450.828C-59.047,449.474 -57.892,447.846 -57.155,446.08C-56.086,443.33 -55.768,440.279 -56.351,437.075C-56.611,435.643 -56.742,434.68 -57.142,433.541C-57.543,432.401 -57.615,432.274 -58.712,430.22C-58.882,435.763 -60.12,441.15 -62.122,446.08C-67.71,448.718 -75.472,451.047 -75.472,451.047C-71.591,450.891 -63.209,448.718 -63.209,448.718C-68.642,452.288 -83.388,454.617 -83.388,454.617C-75.472,455.082 -65.072,451.823 -64.916,451.823C-74.61,456.734 -89.187,457.313 -93.883,457.369C-92.023,457.606 -90.267,457.741 -88.51,457.876C-76.869,458.653 -69.108,455.859 -67.09,455.082ZM-139.456,391.125C-140.808,391.295 -143.142,391.487 -144.39,391.752L-144.388,391.75C-146.396,392.222 -148.599,392.917 -150.133,393.615C-154.324,395.477 -157.584,398.271 -159.291,401.686C-159.446,401.997 -159.602,402.307 -159.757,402.618C-161.616,407.265 -161.21,412.576 -158.431,418.152C-158.431,418.152 -157.891,419.543 -156.963,421.089C-154.635,424.814 -151.53,428.54 -147.65,432.265C-141.33,438.43 -132.103,445.208 -119.055,450.317C-122.609,448.158 -146.808,433.336 -154.635,420.002C-154.635,420.002 -147.029,427.919 -135.853,434.128C-135.853,434.128 -151.841,422.331 -155.256,412.396C-155.256,412.396 -150.444,420.002 -141.13,426.056C-141.13,426.056 -150.133,416.898 -154.479,406.653C-154.479,406.653 -149.512,413.793 -145.942,417.053C-145.942,417.053 -150.754,409.137 -153.082,404.015C-150.754,399.513 -147.98,395.852 -144.41,392.281C-143.228,391.795 -140.682,391.374 -139.456,391.125ZM-120.536,417.203L-125.289,415.302L-127.055,410.549L-128.956,415.302L-133.573,417.203L-128.956,418.968L-127.055,423.721L-125.289,418.968L-120.536,417.203ZM-123.622,395.568L-127.814,393.891L-129.372,389.699L-131.048,393.891L-135.121,395.568L-131.048,397.126L-129.372,401.318L-127.814,397.126L-123.622,395.568ZM-169.951,401.789L-169.951,401.789ZM-169.899,401.736L-169.899,401.736ZM-139.599,381.8L-142.859,380.558L-144.101,377.453L-145.343,380.558L-148.447,381.8L-145.343,383.041L-144.101,386.301L-142.859,383.041L-139.599,381.8ZM-87.113,371.677L-90.218,370.28L-91.459,367.175L-92.701,370.28L-95.806,371.677L-92.701,372.918L-91.459,376.023L-90.218,372.918L-87.113,371.677Z" style="fill:white;"/>
        </g>
        <g transform="matrix(0.866025,0.5,-0.5,0.866025,809.13,-1263.73)">
            <g transform="matrix(29.1667,0,0,29.1667,530.203,2040.39)">
                <path d="M0.097,-0.75L0.393,-0.75L0.393,-0.11L0.544,-0.11L0.544,0L0.097,0L0.097,-0.11L0.255,-0.11L0.255,-0.639L0.097,-0.639L0.097,-0.75Z" style="fill:rgb(69,120,188);fill-rule:nonzero;"/>
            </g>
            <g transform="matrix(29.1667,0,0,29.1667,547.705,2040.39)">
                <path d="M0.105,-0.528L0.393,-0.528L0.393,-0.11L0.536,-0.11L0.536,0L0.105,0L0.105,-0.11L0.255,-0.11L0.255,-0.417L0.105,-0.417L0.105,-0.528ZM0.246,-0.664C0.246,-0.674 0.247,-0.684 0.251,-0.693C0.255,-0.702 0.26,-0.709 0.267,-0.716C0.274,-0.722 0.282,-0.727 0.292,-0.73C0.301,-0.734 0.312,-0.736 0.324,-0.736C0.348,-0.736 0.367,-0.729 0.381,-0.716C0.395,-0.702 0.402,-0.685 0.402,-0.664C0.402,-0.642 0.395,-0.625 0.381,-0.612C0.367,-0.598 0.348,-0.591 0.324,-0.591C0.312,-0.591 0.301,-0.593 0.292,-0.597C0.282,-0.6 0.274,-0.605 0.267,-0.612C0.26,-0.618 0.255,-0.626 0.251,-0.635C0.247,-0.643 0.246,-0.653 0.246,-0.664Z" style="fill:rgb(69,120,188);fill-rule:nonzero;"/>
            </g>
            <g transform="matrix(29.1667,0,0,29.1667,565.208,2040.39)">
                <path d="M0.545,-0.259C0.545,-0.219 0.541,-0.183 0.532,-0.15C0.523,-0.118 0.51,-0.089 0.493,-0.065C0.476,-0.042 0.454,-0.023 0.429,-0.01C0.403,0.003 0.373,0.01 0.339,0.01C0.308,0.01 0.281,0.004 0.259,-0.008C0.236,-0.019 0.216,-0.035 0.2,-0.056L0.194,0L0.072,0L0.072,-0.75L0.208,-0.75L0.208,-0.48C0.223,-0.499 0.242,-0.513 0.263,-0.523C0.284,-0.533 0.309,-0.538 0.338,-0.538C0.372,-0.538 0.403,-0.531 0.428,-0.518C0.454,-0.505 0.476,-0.486 0.493,-0.462C0.51,-0.439 0.523,-0.41 0.532,-0.377C0.541,-0.344 0.545,-0.308 0.545,-0.269L0.545,-0.259ZM0.409,-0.269C0.409,-0.291 0.408,-0.311 0.404,-0.33C0.401,-0.349 0.395,-0.366 0.387,-0.381C0.379,-0.395 0.369,-0.407 0.355,-0.415C0.341,-0.424 0.324,-0.428 0.304,-0.428C0.279,-0.428 0.259,-0.423 0.243,-0.412C0.228,-0.402 0.216,-0.387 0.208,-0.369L0.208,-0.159C0.216,-0.14 0.228,-0.126 0.243,-0.116C0.259,-0.105 0.279,-0.1 0.305,-0.1C0.325,-0.1 0.342,-0.104 0.355,-0.112C0.369,-0.12 0.379,-0.131 0.387,-0.145C0.395,-0.159 0.401,-0.176 0.404,-0.196C0.408,-0.215 0.409,-0.236 0.409,-0.259L0.409,-0.269Z" style="fill:rgb(69,120,188);fill-rule:nonzero;"/>
            </g>
            <g transform="matrix(29.1667,0,0,29.1667,582.711,2040.39)">
                <path d="M0.41,-0.145C0.41,-0.153 0.408,-0.16 0.404,-0.167C0.4,-0.173 0.394,-0.178 0.384,-0.184C0.374,-0.189 0.362,-0.194 0.346,-0.199C0.33,-0.203 0.31,-0.208 0.285,-0.212C0.254,-0.219 0.226,-0.226 0.2,-0.236C0.175,-0.245 0.153,-0.256 0.135,-0.269C0.117,-0.282 0.102,-0.298 0.092,-0.315C0.082,-0.332 0.077,-0.352 0.077,-0.375C0.077,-0.396 0.082,-0.417 0.092,-0.437C0.103,-0.457 0.118,-0.474 0.137,-0.489C0.157,-0.504 0.181,-0.516 0.208,-0.525C0.236,-0.534 0.268,-0.538 0.303,-0.538C0.34,-0.538 0.373,-0.534 0.402,-0.525C0.432,-0.517 0.456,-0.505 0.477,-0.49C0.497,-0.474 0.513,-0.456 0.523,-0.436C0.534,-0.415 0.54,-0.392 0.54,-0.368L0.404,-0.368C0.404,-0.388 0.396,-0.405 0.379,-0.419C0.362,-0.433 0.337,-0.44 0.303,-0.44C0.272,-0.44 0.248,-0.434 0.232,-0.423C0.216,-0.411 0.208,-0.397 0.208,-0.381C0.208,-0.373 0.209,-0.366 0.212,-0.359C0.216,-0.352 0.221,-0.346 0.23,-0.341C0.238,-0.336 0.249,-0.331 0.264,-0.326C0.278,-0.322 0.296,-0.318 0.318,-0.315C0.35,-0.31 0.38,-0.303 0.407,-0.295C0.435,-0.287 0.458,-0.276 0.478,-0.263C0.498,-0.251 0.513,-0.235 0.525,-0.217C0.536,-0.198 0.542,-0.176 0.542,-0.151C0.542,-0.127 0.536,-0.106 0.525,-0.086C0.513,-0.066 0.497,-0.049 0.477,-0.035C0.456,-0.021 0.431,-0.01 0.402,-0.002C0.373,0.006 0.34,0.01 0.304,0.01C0.264,0.01 0.229,0.005 0.198,-0.005C0.168,-0.016 0.143,-0.029 0.122,-0.046C0.102,-0.063 0.086,-0.082 0.075,-0.103C0.065,-0.125 0.06,-0.146 0.06,-0.167L0.189,-0.167C0.19,-0.153 0.194,-0.141 0.201,-0.131C0.208,-0.12 0.216,-0.112 0.227,-0.106C0.238,-0.099 0.25,-0.095 0.264,-0.092C0.278,-0.089 0.292,-0.087 0.307,-0.087C0.34,-0.087 0.366,-0.093 0.383,-0.104C0.401,-0.114 0.41,-0.128 0.41,-0.145Z" style="fill:rgb(69,120,188);fill-rule:nonzero;"/>
            </g>
            <g transform="matrix(29.1667,0,0,29.1667,600.214,2040.39)">
                <path d="M0.303,-0.099C0.316,-0.099 0.329,-0.101 0.341,-0.104C0.353,-0.108 0.363,-0.114 0.373,-0.121C0.382,-0.128 0.389,-0.137 0.394,-0.147C0.399,-0.157 0.401,-0.168 0.4,-0.181L0.528,-0.181C0.529,-0.153 0.523,-0.128 0.511,-0.104C0.5,-0.081 0.483,-0.061 0.463,-0.044C0.442,-0.027 0.419,-0.014 0.391,-0.004C0.364,0.005 0.335,0.01 0.305,0.01C0.264,0.01 0.228,0.003 0.197,-0.01C0.166,-0.024 0.141,-0.043 0.12,-0.067C0.099,-0.091 0.084,-0.12 0.073,-0.152C0.062,-0.184 0.057,-0.219 0.057,-0.256L0.057,-0.271C0.057,-0.308 0.062,-0.343 0.073,-0.375C0.083,-0.408 0.099,-0.436 0.12,-0.46C0.14,-0.484 0.166,-0.503 0.197,-0.517C0.228,-0.531 0.264,-0.538 0.304,-0.538C0.337,-0.538 0.367,-0.533 0.395,-0.523C0.422,-0.514 0.446,-0.5 0.466,-0.482C0.486,-0.464 0.502,-0.443 0.513,-0.418C0.524,-0.392 0.529,-0.364 0.528,-0.333L0.4,-0.333C0.401,-0.346 0.399,-0.358 0.395,-0.37C0.39,-0.382 0.383,-0.392 0.375,-0.4C0.366,-0.409 0.355,-0.416 0.343,-0.421C0.33,-0.426 0.317,-0.428 0.302,-0.428C0.281,-0.428 0.263,-0.424 0.249,-0.415C0.235,-0.406 0.224,-0.395 0.216,-0.38C0.207,-0.365 0.201,-0.348 0.198,-0.33C0.195,-0.311 0.193,-0.291 0.193,-0.271L0.193,-0.256C0.193,-0.236 0.194,-0.216 0.198,-0.197C0.201,-0.178 0.207,-0.161 0.215,-0.147C0.223,-0.132 0.235,-0.121 0.249,-0.112C0.263,-0.103 0.281,-0.099 0.303,-0.099Z" style="fill:rgb(69,120,188);fill-rule:nonzero;"/>
            </g>
            <g transform="matrix(29.1667,0,0,29.1667,617.717,2040.39)">
                <path d="M0.105,-0.528L0.393,-0.528L0.393,-0.11L0.536,-0.11L0.536,0L0.105,0L0.105,-0.11L0.255,-0.11L0.255,-0.417L0.105,-0.417L0.105,-0.528ZM0.246,-0.664C0.246,-0.674 0.247,-0.684 0.251,-0.693C0.255,-0.702 0.26,-0.709 0.267,-0.716C0.274,-0.722 0.282,-0.727 0.292,-0.73C0.301,-0.734 0.312,-0.736 0.324,-0.736C0.348,-0.736 0.367,-0.729 0.381,-0.716C0.395,-0.702 0.402,-0.685 0.402,-0.664C0.402,-0.642 0.395,-0.625 0.381,-0.612C0.367,-0.598 0.348,-0.591 0.324,-0.591C0.312,-0.591 0.301,-0.593 0.292,-0.597C0.282,-0.6 0.274,-0.605 0.267,-0.612C0.26,-0.618 0.255,-0.626 0.251,-0.635C0.247,-0.643 0.246,-0.653 0.246,-0.664Z" style="fill:rgb(69,120,188);fill-rule:nonzero;"/>
            </g>
            <g transform="matrix(29.1667,0,0,29.1667,635.22,2040.39)">
                <path d="M0.325,0.01C0.285,0.01 0.248,0.003 0.214,-0.01C0.181,-0.024 0.153,-0.042 0.129,-0.065C0.105,-0.088 0.087,-0.115 0.074,-0.146C0.061,-0.177 0.055,-0.21 0.055,-0.246L0.055,-0.265C0.055,-0.306 0.061,-0.342 0.074,-0.376C0.086,-0.409 0.104,-0.438 0.127,-0.462C0.15,-0.486 0.177,-0.505 0.208,-0.518C0.239,-0.531 0.273,-0.538 0.31,-0.538C0.348,-0.538 0.382,-0.532 0.412,-0.519C0.442,-0.507 0.467,-0.489 0.488,-0.466C0.508,-0.444 0.524,-0.416 0.535,-0.384C0.545,-0.352 0.551,-0.317 0.551,-0.278L0.551,-0.22L0.192,-0.22C0.195,-0.202 0.2,-0.186 0.208,-0.171C0.216,-0.156 0.226,-0.144 0.239,-0.133C0.251,-0.122 0.265,-0.114 0.281,-0.108C0.297,-0.102 0.315,-0.099 0.333,-0.099C0.347,-0.099 0.36,-0.1 0.373,-0.103C0.386,-0.106 0.399,-0.109 0.411,-0.115C0.423,-0.12 0.434,-0.126 0.445,-0.133C0.455,-0.141 0.464,-0.15 0.472,-0.16L0.54,-0.086C0.532,-0.074 0.521,-0.063 0.507,-0.051C0.494,-0.039 0.478,-0.029 0.459,-0.02C0.441,-0.011 0.42,-0.004 0.398,0.001C0.375,0.007 0.351,0.01 0.325,0.01ZM0.309,-0.428C0.294,-0.428 0.28,-0.426 0.267,-0.42C0.254,-0.415 0.243,-0.407 0.234,-0.397C0.224,-0.387 0.216,-0.375 0.209,-0.361C0.203,-0.347 0.198,-0.331 0.195,-0.314L0.417,-0.314L0.417,-0.325C0.417,-0.339 0.414,-0.353 0.409,-0.365C0.404,-0.378 0.397,-0.389 0.388,-0.398C0.379,-0.407 0.368,-0.415 0.355,-0.42C0.342,-0.426 0.326,-0.428 0.309,-0.428Z" style="fill:rgb(69,120,188);fill-rule:nonzero;"/>
            </g>
            <g transform="matrix(29.1667,0,0,29.1667,652.722,2040.39)">
                <path d="M0.206,-0.079C0.206,-0.091 0.208,-0.103 0.212,-0.114C0.217,-0.125 0.223,-0.134 0.231,-0.142C0.239,-0.15 0.249,-0.157 0.261,-0.161C0.272,-0.166 0.286,-0.168 0.3,-0.168C0.315,-0.168 0.328,-0.166 0.34,-0.161C0.352,-0.157 0.361,-0.15 0.369,-0.142C0.377,-0.134 0.384,-0.125 0.388,-0.114C0.392,-0.103 0.395,-0.091 0.395,-0.079C0.395,-0.066 0.392,-0.055 0.388,-0.044C0.384,-0.033 0.377,-0.024 0.369,-0.016C0.361,-0.008 0.352,-0.002 0.34,0.003C0.328,0.007 0.315,0.01 0.3,0.01C0.286,0.01 0.272,0.007 0.261,0.003C0.249,-0.002 0.239,-0.008 0.231,-0.016C0.223,-0.024 0.217,-0.033 0.212,-0.044C0.208,-0.055 0.206,-0.066 0.206,-0.079Z" style="fill:rgb(69,120,188);fill-rule:nonzero;"/>
            </g>
            <g transform="matrix(29.1667,0,0,29.1667,670.225,2040.39)">
                <path d="M0.05,-0.269C0.05,-0.307 0.056,-0.343 0.067,-0.376C0.078,-0.408 0.094,-0.437 0.115,-0.461C0.137,-0.485 0.163,-0.504 0.194,-0.518C0.224,-0.531 0.26,-0.538 0.299,-0.538C0.339,-0.538 0.374,-0.531 0.405,-0.518C0.436,-0.504 0.462,-0.485 0.484,-0.461C0.505,-0.437 0.521,-0.408 0.532,-0.376C0.543,-0.343 0.549,-0.307 0.549,-0.269L0.549,-0.259C0.549,-0.22 0.543,-0.184 0.532,-0.152C0.521,-0.119 0.505,-0.09 0.484,-0.066C0.463,-0.042 0.437,-0.024 0.406,-0.01C0.375,0.003 0.34,0.01 0.3,0.01C0.261,0.01 0.225,0.003 0.194,-0.01C0.163,-0.024 0.137,-0.042 0.115,-0.066C0.094,-0.09 0.078,-0.119 0.067,-0.152C0.056,-0.184 0.05,-0.22 0.05,-0.259L0.05,-0.269ZM0.186,-0.259C0.186,-0.237 0.188,-0.216 0.192,-0.197C0.197,-0.177 0.203,-0.16 0.212,-0.146C0.222,-0.131 0.233,-0.12 0.248,-0.111C0.262,-0.103 0.28,-0.099 0.3,-0.099C0.32,-0.099 0.337,-0.103 0.352,-0.111C0.366,-0.12 0.378,-0.131 0.386,-0.146C0.395,-0.16 0.402,-0.177 0.406,-0.197C0.41,-0.216 0.413,-0.237 0.413,-0.259L0.413,-0.269C0.413,-0.291 0.41,-0.311 0.406,-0.33C0.402,-0.349 0.395,-0.366 0.386,-0.381C0.378,-0.396 0.366,-0.407 0.352,-0.416C0.337,-0.424 0.32,-0.428 0.299,-0.428C0.279,-0.428 0.262,-0.424 0.248,-0.416C0.233,-0.407 0.222,-0.396 0.212,-0.381C0.203,-0.366 0.197,-0.349 0.192,-0.33C0.188,-0.311 0.186,-0.291 0.186,-0.269L0.186,-0.259Z" style="fill:rgb(69,120,188);fill-rule:nonzero;"/>
            </g>
            <g transform="matrix(29.1667,0,0,29.1667,687.728,2040.39)">
                <path d="M0.448,-0.538C0.469,-0.538 0.488,-0.537 0.505,-0.534C0.523,-0.531 0.537,-0.528 0.547,-0.525L0.527,-0.39C0.509,-0.394 0.491,-0.397 0.472,-0.399C0.454,-0.401 0.436,-0.402 0.419,-0.402C0.381,-0.402 0.35,-0.395 0.327,-0.38C0.304,-0.366 0.287,-0.345 0.276,-0.317L0.276,0L0.14,0L0.14,-0.528L0.267,-0.528L0.273,-0.442C0.294,-0.472 0.32,-0.495 0.35,-0.512C0.38,-0.53 0.413,-0.538 0.448,-0.538Z" style="fill:rgb(69,120,188);fill-rule:nonzero;"/>
            </g>
            <g transform="matrix(29.1667,0,0,29.1667,705.231,2040.39)">
                <path d="M0.055,-0.268C0.055,-0.308 0.06,-0.345 0.07,-0.378C0.08,-0.411 0.094,-0.44 0.113,-0.463C0.131,-0.487 0.154,-0.506 0.18,-0.519C0.207,-0.532 0.236,-0.538 0.27,-0.538C0.3,-0.538 0.327,-0.533 0.349,-0.522C0.371,-0.512 0.39,-0.497 0.406,-0.478L0.411,-0.528L0.535,-0.528L0.535,-0.017C0.535,0.019 0.529,0.051 0.516,0.079C0.504,0.107 0.487,0.13 0.465,0.149C0.443,0.169 0.417,0.183 0.386,0.193C0.355,0.203 0.321,0.208 0.284,0.208C0.268,0.208 0.251,0.206 0.233,0.203C0.215,0.2 0.197,0.195 0.179,0.188C0.161,0.181 0.144,0.172 0.128,0.162C0.112,0.151 0.098,0.139 0.087,0.124L0.148,0.042C0.165,0.061 0.185,0.076 0.207,0.086C0.228,0.096 0.252,0.102 0.277,0.102C0.315,0.102 0.345,0.091 0.366,0.071C0.388,0.051 0.398,0.022 0.398,-0.016L0.398,-0.046C0.382,-0.028 0.364,-0.015 0.343,-0.005C0.321,0.005 0.297,0.01 0.269,0.01C0.236,0.01 0.206,0.003 0.18,-0.01C0.154,-0.024 0.131,-0.043 0.113,-0.066C0.094,-0.09 0.08,-0.118 0.07,-0.151C0.06,-0.184 0.055,-0.219 0.055,-0.258L0.055,-0.268ZM0.191,-0.258C0.191,-0.236 0.194,-0.215 0.198,-0.196C0.202,-0.177 0.209,-0.16 0.218,-0.146C0.227,-0.132 0.239,-0.121 0.253,-0.113C0.267,-0.105 0.284,-0.101 0.303,-0.101C0.326,-0.101 0.346,-0.105 0.362,-0.114C0.377,-0.123 0.389,-0.136 0.398,-0.152L0.398,-0.376C0.389,-0.393 0.377,-0.405 0.362,-0.414C0.346,-0.423 0.327,-0.428 0.304,-0.428C0.285,-0.428 0.268,-0.424 0.254,-0.415C0.24,-0.407 0.228,-0.396 0.219,-0.381C0.21,-0.367 0.203,-0.35 0.198,-0.33C0.194,-0.311 0.191,-0.29 0.191,-0.268L0.191,-0.258Z" style="fill:rgb(69,120,188);fill-rule:nonzero;"/>
            </g>
        </g>
    </g>
</svg>
