<svg xmlns:xlink="http://www.w3.org/1999/xlink" width="453.55" xmlns="http://www.w3.org/2000/svg" height="563.57" id="screenshot-8d36b890-ee2f-11ec-a602-31d3e7357c9e" viewBox="0 0 453.55 563.57" style="-webkit-print-color-adjust: exact;" fill="none" version="1.1"><g id="shape-8d36b890-ee2f-11ec-a602-31d3e7357c9e" rx="0" ry="0" style="fill: rgb(0, 0, 0);"><g id="shape-8d36dfa1-ee2f-11ec-a602-31d3e7357c9e"><g class="fills" id="fills-8d36dfa1-ee2f-11ec-a602-31d3e7357c9e"><rect width="453.53999999999996" height="563.54" x="0" transform="matrix(1.000000, 0.000000, 0.000000, 1.000000, 0.000000, 0.000000)" style="fill: none;" ry="0" fill="none" rx="0" y="0"/></g></g><g id="shape-8d372dc0-ee2f-11ec-a602-31d3e7357c9e"><g class="fills" id="fills-8d372dc0-ee2f-11ec-a602-31d3e7357c9e"><path class="cls-1" rx="0" ry="0" d="M214.140,197.720C214.140,166.410,192.570,166.060,179.350,166.060L146.650,166.060L124.730,266.960L140.040,266.960C164.390,266.260,183.870,265.910,196.400,253.040C206.830,242.260,214.140,214.770,214.140,197.720ZZ"/></g></g><g id="shape-8d37ca00-ee2f-11ec-a602-31d3e7357c9e"><g class="fills" id="fills-8d37ca00-ee2f-11ec-a602-31d3e7357c9e"><path class="cls-1" rx="0" ry="0" d="M0.000,0.000L0.000,453.540L341.000,453.540L453.550,341.010L453.550,0.010ZZM257.630,404.380C249.169,406.931,240.378,408.221,231.540,408.210C184.540,408.210,182.480,367.150,181.090,344.210L179.700,320.210C179.000,309.420,178.310,295.500,169.610,285.420C160.910,275.340,149.080,274.980,139.340,274.630L123.340,274.630L96.900,397.070L128.900,397.070L127.510,404.380L26.620,404.380L28.360,397.070L58.280,397.070L107.330,166.070L74.630,166.070L76.720,158.770L182.130,158.770C197.130,158.770,208.230,158.770,220.050,162.250C252.050,171.640,254.500,198.780,254.500,208.870C254.692,223.052,249.175,236.717,239.190,246.790C218.320,268.710,182.480,271.140,165.090,272.190C222.830,289.570,224.230,321.230,224.580,358.130L224.580,369.260C224.930,380.390,225.270,385.610,227.360,389.790C229.800,395.000,235.360,399.530,243.710,399.530C247.190,399.530,248.240,399.180,257.630,397.090ZM421.830,341.010L277.930,341.010L277.930,322.280L421.830,322.280ZM421.830,285.780L277.930,286.130L277.930,267.350L421.830,267.350Z"/></g></g><g id="shape-8d386640-ee2f-11ec-a602-31d3e7357c9e"><g class="fills" id="fills-8d386640-ee2f-11ec-a602-31d3e7357c9e"><path class="cls-1" rx="0" ry="0" d="M93.710,519.360C87.590,519.140,82.510,523.360,82.250,528.280C82.050,532.190,84.410,534.280,88.700,538.060L90.620,539.790C92.270,541.200,94.200,543.000,94.080,545.170C93.960,547.340,91.700,550.730,85.880,550.530C82.820,550.420,80.510,549.060,80.550,548.460C80.562,548.143,80.712,547.848,80.960,547.650C81.743,546.944,82.223,545.962,82.300,544.910C82.413,544.158,82.187,543.395,81.683,542.826C81.180,542.257,80.450,541.940,79.690,541.960C78.859,541.937,78.056,542.260,77.473,542.851C76.889,543.443,76.576,544.250,76.610,545.080C76.450,548.080,80.660,551.700,86.260,551.890C93.570,552.150,98.980,547.380,99.260,541.820C99.500,537.310,96.200,534.640,93.980,532.820L91.040,530.460C89.170,528.970,87.310,527.320,87.440,524.920C87.580,522.220,90.290,520.430,93.640,520.550C95.730,520.620,98.140,521.390,98.090,522.360C98.070,522.655,97.919,522.926,97.680,523.100C97.165,523.618,96.841,524.294,96.760,525.020C96.708,525.681,96.942,526.333,97.403,526.809C97.864,527.285,98.508,527.541,99.170,527.510C99.916,527.559,100.650,527.301,101.200,526.794C101.750,526.288,102.068,525.578,102.080,524.830C102.230,521.920,98.830,519.540,93.710,519.360ZZ"/></g></g><g id="shape-8d38db70-ee2f-11ec-a602-31d3e7357c9e"><g class="fills" id="fills-8d38db70-ee2f-11ec-a602-31d3e7357c9e"><path class="cls-1" rx="0" ry="0" d="M434.210,526.580L434.210,526.580ZC434.517,526.264,434.851,526.124,435.200,526.120L445.100,526.120C445.446,526.122,445.778,526.263,446.020,526.510L448.860,529.350L453.550,524.660L449.720,520.840C448.877,519.965,447.704,519.486,446.490,519.520L433.830,519.520C432.615,519.484,431.442,519.963,430.600,520.840L427.690,523.740C426.786,524.626,426.287,525.845,426.310,527.110L426.310,532.520C426.401,534.823,428.119,536.735,430.400,537.070L444.790,538.990C445.461,539.070,445.970,539.634,445.980,540.310L445.980,542.950C445.986,543.300,445.840,543.636,445.580,543.870L445.510,543.940C445.268,544.187,444.936,544.328,444.590,544.330L434.760,544.330C434.411,544.326,434.077,544.186,433.830,543.940L430.970,541.130L426.290,545.810L430.120,549.640C430.962,550.517,432.135,550.996,433.350,550.960L446.020,550.960C447.238,550.997,448.414,550.517,449.260,549.640L452.160,546.740C453.066,545.855,453.568,544.636,453.550,543.370L453.550,537.530C453.454,535.225,451.732,533.314,449.450,532.980L435.000,531.070C434.331,530.986,433.825,530.424,433.810,529.750L433.810,527.500C433.800,527.149,433.946,526.812,434.210,526.580ZZ"/></g></g><g id="shape-8d390280-ee2f-11ec-a602-31d3e7357c9e"><g class="fills" id="fills-8d390280-ee2f-11ec-a602-31d3e7357c9e"><path class="cls-1" rx="0" ry="0" d="M405.100,507.940L411.770,507.940L411.770,550.930L419.290,550.930L419.290,501.340L405.100,501.340L405.100,507.940ZZ"/></g></g><g id="shape-8d3950a0-ee2f-11ec-a602-31d3e7357c9e"><g class="fills" id="fills-8d3950a0-ee2f-11ec-a602-31d3e7357c9e"><path class="cls-1" rx="0" ry="0" d="M77.320,526.300C77.320,522.110,73.320,519.300,68.120,519.300C62.462,519.467,57.129,521.981,53.400,526.240C50.504,529.718,48.891,534.085,48.830,538.610C48.830,546.450,54.120,551.830,60.670,551.830C64.670,551.830,69.450,549.780,73.890,543.920L72.950,542.920C69.350,546.800,66.190,550.220,61.560,550.220C55.670,550.220,55.670,544.100,55.670,542.610C55.610,540.645,55.832,538.682,56.330,536.780C62.450,537.050,77.320,535.180,77.320,526.300ZZM67.820,520.700C68.942,520.608,70.048,521.007,70.854,521.794C71.659,522.580,72.084,523.676,72.020,524.800C72.020,528.910,66.350,535.400,56.640,535.630C57.300,531.300,60.390,520.700,67.820,520.700ZZ"/></g></g><g id="shape-8d39ece0-ee2f-11ec-a602-31d3e7357c9e"><g class="fills" id="fills-8d39ece0-ee2f-11ec-a602-31d3e7357c9e"><path class="cls-1" rx="0" ry="0" d="M41.030,548.550C40.600,547.690,40.530,546.630,40.460,544.350L40.460,542.130C40.390,534.590,40.100,528.130,28.300,524.560C31.860,524.350,39.180,523.850,43.450,519.370C45.488,517.310,46.613,514.517,46.570,511.620C46.792,507.188,43.867,503.210,39.570,502.100C37.037,501.474,34.425,501.232,31.820,501.380L10.240,501.380L9.820,502.880L16.500,502.880L6.500,550.090L0.390,550.090L0.030,551.580L20.650,551.580L20.940,550.090L14.400,550.090L19.800,525.090L23.070,525.090C25.070,525.160,27.480,525.230,29.260,527.300C31.040,529.370,31.180,532.200,31.320,534.410L31.600,539.310C31.890,544.000,32.310,552.390,41.910,552.390C43.715,552.395,45.512,552.132,47.240,551.610L47.240,550.120C46.318,550.404,45.364,550.572,44.400,550.620C42.961,550.678,41.629,549.860,41.030,548.550ZZM20.030,523.450L24.510,502.830L31.200,502.830C33.900,502.830,38.310,502.900,38.310,509.300C38.310,512.780,36.810,518.400,34.680,520.600C32.120,523.230,28.140,523.310,23.160,523.450Z"/></g></g><g id="shape-8d3a3b00-ee2f-11ec-a602-31d3e7357c9e"><g class="fills" id="fills-8d3a3b00-ee2f-11ec-a602-31d3e7357c9e"><path class="cls-1" rx="0" ry="0" d="M124.650,519.280C118.992,519.447,113.659,521.961,109.930,526.220C107.031,529.704,105.417,534.078,105.360,538.610C105.360,546.450,110.660,551.830,117.210,551.830C121.210,551.830,125.990,549.780,130.430,543.920L129.430,542.920C125.840,546.800,122.670,550.220,118.040,550.220C112.160,550.220,112.160,544.100,112.160,542.610C112.100,540.645,112.322,538.682,112.820,536.780C118.930,537.010,133.820,535.140,133.820,526.260C133.830,522.130,129.830,519.280,124.650,519.280ZZM113.160,535.630C113.830,531.300,116.920,520.700,124.350,520.700C125.472,520.608,126.578,521.007,127.384,521.794C128.189,522.580,128.614,523.676,128.550,524.800C128.550,528.910,122.880,535.400,113.160,535.630ZZ"/></g></g><g id="shape-8d3ad740-ee2f-11ec-a602-31d3e7357c9e"><g class="fills" id="fills-8d3ad740-ee2f-11ec-a602-31d3e7357c9e"><path class="cls-1" rx="0" ry="0" d="M325.460,524.000L322.300,520.840C321.454,519.963,320.278,519.483,319.060,519.520L310.750,519.520C309.532,519.483,308.356,519.963,307.510,520.840L304.610,523.740C303.699,524.622,303.196,525.842,303.220,527.110L303.220,543.340C303.197,544.607,303.700,545.827,304.610,546.710L307.510,549.610C308.356,550.487,309.532,550.967,310.750,550.930L319.060,550.930C320.278,550.967,321.454,550.487,322.300,549.610L324.830,547.130L324.830,563.570L332.360,563.570L332.360,524.730L333.360,519.520L326.500,519.520ZM324.830,538.330C324.840,538.679,324.698,539.015,324.440,539.250L319.750,543.940C319.508,544.187,319.176,544.328,318.830,544.330L312.130,544.330C311.784,544.328,311.452,544.187,311.210,543.940L311.140,543.870C310.882,543.635,310.740,543.299,310.750,542.950L310.750,527.500C310.740,527.151,310.882,526.815,311.140,526.580L311.210,526.510C311.452,526.263,311.784,526.122,312.130,526.120L318.830,526.120C319.176,526.122,319.508,526.263,319.750,526.510L324.440,531.200C324.698,531.435,324.840,531.771,324.830,532.120Z"/></g></g><g id="shape-8d3b4c70-ee2f-11ec-a602-31d3e7357c9e"><g class="fills" id="fills-8d3b4c70-ee2f-11ec-a602-31d3e7357c9e"><path class="cls-1" rx="0" ry="0" d="M254.670,547.800C253.993,548.582,253.068,549.108,252.050,549.290C250.860,549.290,250.710,548.290,250.710,547.350C250.807,545.992,251.059,544.650,251.460,543.350L254.520,530.060C255.046,528.233,255.381,526.356,255.520,524.460C255.520,520.580,251.860,519.310,249.520,519.310C243.520,519.310,238.250,523.470,235.590,528.120L241.590,501.420L227.830,501.420L227.550,502.910L234.420,502.910L223.830,550.930L230.620,550.930L234.020,536.080C234.850,532.420,235.630,529.650,238.850,526.220C242.520,522.340,245.640,521.890,246.540,521.890C247.208,521.812,247.876,522.033,248.366,522.494C248.856,522.955,249.117,523.609,249.080,524.280C249.020,524.987,248.893,525.687,248.700,526.370L245.350,541.000C244.350,544.810,244.150,545.780,244.150,547.000C244.150,551.180,247.730,551.700,249.300,551.700C251.769,551.659,254.104,550.568,255.720,548.700C257.104,547.260,258.300,545.650,259.280,543.910L258.280,542.910C257.316,544.704,256.100,546.351,254.670,547.800ZZ"/></g></g><g id="shape-8d3b9a90-ee2f-11ec-a602-31d3e7357c9e"><g class="fills" id="fills-8d3b9a90-ee2f-11ec-a602-31d3e7357c9e"><path class="cls-1" rx="0" ry="0" d="M219.190,523.760C218.124,524.361,217.424,525.450,217.320,526.670C217.405,528.216,218.682,529.427,220.230,529.430C222.337,529.293,223.974,527.541,223.970,525.430C223.970,522.520,221.200,519.310,215.600,519.310C209.608,519.560,204.057,522.527,200.520,527.370C198.114,530.544,196.758,534.389,196.640,538.370C196.640,545.840,201.940,551.810,208.960,551.810C213.700,551.810,218.430,549.130,222.090,543.810L220.990,542.700C218.360,546.160,214.850,550.280,209.860,550.280C203.860,550.280,203.860,543.640,203.860,542.220C203.860,536.920,205.860,529.600,208.270,525.870C210.210,522.740,213.120,520.500,216.270,520.500C219.030,520.500,219.930,522.440,219.930,522.810C219.930,523.180,219.640,523.530,219.190,523.760ZZ"/></g></g><g id="shape-8d3be8b0-ee2f-11ec-a602-31d3e7357c9e"><g class="fills" id="fills-8d3be8b0-ee2f-11ec-a602-31d3e7357c9e"><path class="cls-1" rx="0" ry="0" d="M267.780,550.930L297.280,550.930L297.280,543.410L275.700,543.410L275.700,529.000L297.280,529.000L297.280,521.480L275.700,521.480L275.700,508.920L297.280,508.920L297.280,501.390L267.780,501.390L267.780,550.930ZZ"/></g></g><g id="shape-8d3c36d0-ee2f-11ec-a602-31d3e7357c9e"><g class="fills" id="fills-8d3c36d0-ee2f-11ec-a602-31d3e7357c9e"><path class="cls-1" rx="0" ry="0" d="M367.230,519.520L359.700,519.520L359.700,538.330C359.710,538.679,359.568,539.015,359.310,539.250L354.160,544.400C353.915,544.650,353.580,544.790,353.230,544.790L349.140,544.790C348.794,544.788,348.462,544.647,348.220,544.400L347.690,543.870C347.432,543.635,347.290,543.299,347.300,542.950L347.300,519.520L339.770,519.520L339.770,543.340C339.747,544.607,340.250,545.827,341.160,546.710L344.060,549.610C344.905,550.488,346.082,550.968,347.300,550.930L353.960,550.930C355.175,550.968,356.349,550.488,357.190,549.610L360.360,546.440L361.420,550.930L368.550,550.930L367.230,545.450Z"/></g></g><g id="shape-8d3cd310-ee2f-11ec-a602-31d3e7357c9e"><g class="fills" id="fills-8d3cd310-ee2f-11ec-a602-31d3e7357c9e"><path class="cls-1" rx="0" ry="0" d="M403.400,542.420L403.400,527.130C403.424,525.862,402.921,524.642,402.010,523.760L399.110,520.860C398.250,520.011,397.089,519.537,395.880,519.540L381.830,519.540C380.616,519.523,379.446,519.999,378.590,520.860L375.230,524.220L379.580,528.580L381.580,526.580C381.822,526.333,382.154,526.192,382.500,526.190L394.450,526.190C394.796,526.192,395.128,526.333,395.370,526.580L395.440,526.650C395.700,526.884,395.846,527.220,395.840,527.570L395.840,531.270L381.360,531.270C380.146,531.253,378.976,531.729,378.120,532.590L375.680,535.030C374.772,535.914,374.269,537.133,374.290,538.400L374.290,543.400C374.272,544.666,374.774,545.885,375.680,546.770L378.580,549.670C379.438,550.528,380.618,550.985,381.830,550.930L393.510,550.930C394.721,550.947,395.887,550.470,396.740,549.610L398.590,547.760L401.760,550.930L406.580,546.110L403.830,543.340C403.555,543.114,403.397,542.776,403.400,542.420ZZM395.880,540.640C395.886,540.990,395.740,541.326,395.480,541.560L393.100,543.940C392.858,544.187,392.526,544.328,392.180,544.330L383.180,544.330C382.834,544.328,382.502,544.187,382.260,543.940L382.190,543.870C381.932,543.635,381.790,543.299,381.800,542.950L381.800,538.720C381.790,538.371,381.932,538.035,382.190,537.800L382.260,537.730C382.502,537.483,382.834,537.342,383.180,537.340L395.860,537.340Z"/></g></g><g id="shape-8d3cfa20-ee2f-11ec-a602-31d3e7357c9e"><g class="fills" id="fills-8d3cfa20-ee2f-11ec-a602-31d3e7357c9e"><path class="cls-1" rx="0" ry="0" d="M199.090,522.490C199.090,520.700,197.520,519.280,195.280,519.280C189.980,519.280,186.330,526.370,185.210,528.460L187.070,520.170L173.830,520.170L173.450,521.670L180.250,521.670L173.450,550.930L180.170,550.930L182.340,541.670C184.650,532.040,185.700,529.580,188.460,525.770C189.280,524.650,190.630,522.770,191.600,522.770C192.120,522.770,192.270,523.140,192.600,523.590C193.193,524.875,194.465,525.713,195.880,525.750C197.656,525.712,199.080,524.267,199.090,522.490ZZ"/></g></g><g id="shape-8d3d6f50-ee2f-11ec-a602-31d3e7357c9e"><g class="fills" id="fills-8d3d6f50-ee2f-11ec-a602-31d3e7357c9e"><path class="cls-1" rx="0" ry="0" d="M166.200,547.350C165.450,548.278,164.380,548.891,163.200,549.070C161.940,549.070,161.650,548.170,161.650,547.200C161.926,544.912,162.347,542.644,162.910,540.410L167.690,520.130L160.950,520.130L160.060,523.940C159.665,522.869,159.000,521.919,158.130,521.180C156.650,519.904,154.754,519.214,152.800,519.240C145.400,519.240,135.700,528.120,135.700,539.540C135.700,547.760,141.400,551.790,146.210,551.790C151.910,551.790,154.800,547.160,155.690,545.740C155.980,549.740,158.210,551.640,160.870,551.640C164.940,551.640,168.340,547.320,170.310,543.820L169.310,542.820C168.504,544.476,167.456,546.003,166.200,547.350ZZM157.200,536.600C156.200,540.700,153.950,550.260,147.360,550.260C143.730,550.260,142.360,547.200,142.360,543.690C142.360,539.430,144.950,530.480,146.660,527.040C148.800,522.710,151.660,520.920,153.910,520.920C156.650,520.920,158.910,523.380,158.910,527.420C158.950,529.580,157.830,534.280,157.200,536.600ZZ"/></g></g></g></svg>