<svg xmlns:xlink="http://www.w3.org/1999/xlink" width="580.921" xmlns="http://www.w3.org/2000/svg" height="113.41" id="screenshot-8d180d00-ee2f-11ec-a602-31d3e7357c9e" viewBox="0 0 580.921 113.41" style="-webkit-print-color-adjust: exact;" fill="none" version="1.1"><g id="shape-8d180d00-ee2f-11ec-a602-31d3e7357c9e" rx="0" ry="0" style="fill: rgb(0, 0, 0);"><g id="shape-8d18a940-ee2f-11ec-a602-31d3e7357c9e"><g class="fills" id="fills-8d18a940-ee2f-11ec-a602-31d3e7357c9e"><path class="cls-1" rx="0" ry="0" d="M53.540,49.450C53.540,41.620,48.140,41.540,44.840,41.540L36.660,41.540L31.180,66.760L35.010,66.760C41.100,66.590,46.010,66.500,49.100,63.280C51.720,60.590,53.540,53.710,53.540,49.450ZZ"/></g></g><g id="shape-8d1993a0-ee2f-11ec-a602-31d3e7357c9e"><g class="fills" id="fills-8d1993a0-ee2f-11ec-a602-31d3e7357c9e"><path class="cls-1" rx="0" ry="0" d="M0.000,0.000L0.000,113.410L85.250,113.410L113.390,85.280L113.390,0.000ZZM64.410,101.100C62.291,101.732,60.091,102.052,57.880,102.050C46.140,102.050,45.620,91.790,45.270,86.050L44.920,80.050C44.750,77.350,44.580,73.870,42.400,71.350C40.220,68.830,37.270,68.740,34.840,68.650L30.840,68.650L24.230,99.270L32.230,99.270L31.880,101.100L6.650,101.100L7.090,99.270L14.570,99.270L26.830,41.520L18.660,41.520L19.180,39.690L45.530,39.690C49.270,39.690,52.060,39.690,55.010,40.560C63.010,42.910,63.620,49.690,63.620,52.220C63.670,55.765,62.294,59.181,59.800,61.700C54.580,67.180,45.620,67.780,41.270,68.050C55.710,72.390,56.060,80.310,56.140,89.530L56.140,92.310C56.230,95.100,56.320,96.400,56.840,97.440C57.595,98.996,59.202,99.954,60.930,99.880C62.111,99.819,63.279,99.614,64.410,99.270ZM105.410,85.260L69.410,85.260L69.410,80.570L105.410,80.570ZM105.410,71.450L69.410,71.520L69.410,66.840L105.410,66.840Z"/></g></g><g id="shape-8d1a56f0-ee2f-11ec-a602-31d3e7357c9e"><g class="fills" id="fills-8d1a56f0-ee2f-11ec-a602-31d3e7357c9e"><path class="cls-1" rx="0" ry="0" d="M221.070,69.230C214.950,69.010,209.880,73.230,209.620,78.150C209.410,82.060,211.780,84.150,216.060,87.930L217.990,89.650C219.630,91.070,221.560,92.860,221.450,95.040C221.340,97.040,219.060,100.600,213.240,100.390C210.180,100.290,207.880,98.930,207.910,98.330C207.923,98.008,208.077,97.709,208.330,97.510C209.109,96.806,209.585,95.828,209.660,94.780C209.776,94.028,209.552,93.263,209.047,92.692C208.543,92.122,207.811,91.806,207.050,91.830C206.219,91.807,205.416,92.130,204.833,92.721C204.249,93.313,203.936,94.120,203.970,94.950C203.820,97.950,208.030,101.570,213.620,101.760C220.930,102.020,226.340,97.240,226.620,91.690C226.850,87.180,223.550,84.510,221.330,82.690L218.390,80.330C216.520,78.840,214.670,77.190,214.790,74.790C214.930,72.090,217.640,70.300,221.000,70.420C223.090,70.490,225.500,71.250,225.450,72.230C225.416,72.521,225.269,72.787,225.040,72.970C224.521,73.486,224.194,74.163,224.110,74.890C224.058,75.551,224.292,76.203,224.753,76.679C225.214,77.155,225.858,77.411,226.520,77.380C227.267,77.432,228.002,77.175,228.553,76.667C229.104,76.160,229.421,75.449,229.430,74.700C229.590,71.780,226.230,69.410,221.070,69.230ZZ"/></g></g><g id="shape-8d1b1a40-ee2f-11ec-a602-31d3e7357c9e"><g class="fills" id="fills-8d1b1a40-ee2f-11ec-a602-31d3e7357c9e"><path class="cls-1" rx="0" ry="0" d="M561.570,76.450L561.570,76.450ZC561.882,76.133,562.214,75.992,562.560,75.990L572.460,75.990C572.809,75.994,573.143,76.134,573.390,76.380L576.220,79.220L580.910,74.530L577.080,70.710C576.239,69.831,575.066,69.348,573.850,69.380L561.180,69.380C559.961,69.347,558.785,69.830,557.940,70.710L555.040,73.610C554.129,74.487,553.625,75.705,553.650,76.970L553.650,82.390C553.745,84.692,555.461,86.601,557.740,86.940L572.130,88.850C572.799,88.934,573.305,89.496,573.320,90.170L573.320,92.810C573.333,93.164,573.186,93.506,572.920,93.740L572.860,93.800C572.616,94.053,572.281,94.197,571.930,94.200L562.100,94.200C561.751,94.199,561.419,94.054,561.180,93.800L558.340,91.000L553.650,95.680L557.480,99.510C558.332,100.374,559.507,100.842,560.720,100.800L573.400,100.800C574.614,100.831,575.785,100.352,576.630,99.480L579.530,96.580C580.440,95.697,580.943,94.477,580.920,93.210L580.920,87.400C580.829,85.097,579.111,83.185,576.830,82.850L562.370,80.930C561.701,80.850,561.195,80.284,561.190,79.610L561.190,77.370C561.176,77.023,561.315,76.686,561.570,76.450ZZ"/></g></g><g id="shape-8d1b6860-ee2f-11ec-a602-31d3e7357c9e"><g class="fills" id="fills-8d1b6860-ee2f-11ec-a602-31d3e7357c9e"><path class="cls-1" rx="0" ry="0" d="M532.470,57.800L539.140,57.800L539.140,100.800L546.660,100.800L546.660,51.200L532.470,51.200L532.470,57.800ZZ"/></g></g><g id="shape-8d1bb680-ee2f-11ec-a602-31d3e7357c9e"><g class="fills" id="fills-8d1bb680-ee2f-11ec-a602-31d3e7357c9e"><path class="cls-1" rx="0" ry="0" d="M204.720,76.160C204.720,71.980,200.720,69.160,195.520,69.160C189.836,69.303,184.470,71.816,180.720,76.090C177.824,79.575,176.214,83.949,176.160,88.480C176.160,96.320,181.460,101.700,188.010,101.700C192.010,101.700,196.790,99.650,201.230,93.790L200.280,92.790C196.680,96.660,193.520,100.090,188.890,100.090C183.000,100.090,183.000,93.970,183.000,92.470C182.936,90.508,183.162,88.547,183.670,86.650C189.810,86.920,204.720,85.050,204.720,76.160ZZM195.230,70.560C196.352,70.471,197.457,70.873,198.261,71.661C199.064,72.449,199.487,73.547,199.420,74.670C199.420,78.780,193.750,85.270,184.040,85.500C184.660,81.170,187.720,70.560,195.230,70.560ZZ"/></g></g><g id="shape-8d1c79d0-ee2f-11ec-a602-31d3e7357c9e"><g class="fills" id="fills-8d1c79d0-ee2f-11ec-a602-31d3e7357c9e"><path class="cls-1" rx="0" ry="0" d="M168.390,98.420C167.970,97.560,167.900,96.500,167.820,94.220L167.820,91.940C167.750,84.410,167.470,77.940,155.670,74.380C159.220,74.170,166.540,73.670,170.810,69.190C172.850,67.131,173.978,64.339,173.940,61.440C174.159,57.006,171.236,53.027,166.940,51.910C164.406,51.292,161.794,51.053,159.190,51.200L137.610,51.200L137.180,52.700L143.860,52.700L133.860,99.910L127.720,99.910L127.370,101.400L147.990,101.400L148.270,99.910L141.720,99.910L147.120,74.910L150.390,74.910C152.390,74.980,154.800,75.050,156.580,77.110C158.360,79.170,158.500,82.020,158.640,84.220L158.930,89.130C159.210,93.820,159.640,102.210,169.240,102.210C171.045,102.214,172.842,101.951,174.570,101.430L174.570,99.940C173.643,100.220,172.687,100.388,171.720,100.440C170.308,100.485,169.003,99.693,168.390,98.420ZZM147.390,73.320L151.870,52.700L158.550,52.700C161.250,52.700,165.660,52.770,165.660,59.170C165.660,62.650,164.170,68.270,162.030,70.470C159.480,73.100,155.490,73.170,150.520,73.320Z"/></g></g><g id="shape-8d1cc7f0-ee2f-11ec-a602-31d3e7357c9e"><g class="fills" id="fills-8d1cc7f0-ee2f-11ec-a602-31d3e7357c9e"><path class="cls-1" rx="0" ry="0" d="M252.010,69.150C246.352,69.317,241.019,71.831,237.290,76.090C234.390,79.573,232.777,83.948,232.720,88.480C232.720,96.320,238.020,101.700,244.570,101.700C248.570,101.700,253.340,99.650,257.780,93.790L256.840,92.790C253.240,96.670,250.080,100.090,245.450,100.090C239.560,100.090,239.560,93.970,239.560,92.470C239.500,90.508,239.723,88.548,240.220,86.650C246.330,86.880,261.220,85.010,261.220,76.120C261.210,72.000,257.230,69.150,252.010,69.150ZZM240.530,85.500C241.190,81.170,244.280,70.560,251.710,70.560C252.834,70.468,253.942,70.868,254.748,71.657C255.553,72.445,255.978,73.545,255.910,74.670C255.910,78.780,250.240,85.270,240.530,85.500ZZ"/></g></g><g id="shape-8d1d6430-ee2f-11ec-a602-31d3e7357c9e"><g class="fills" id="fills-8d1d6430-ee2f-11ec-a602-31d3e7357c9e"><path class="cls-1" rx="0" ry="0" d="M452.830,73.870L449.660,70.710C448.819,69.831,447.646,69.348,446.430,69.380L438.110,69.380C436.894,69.348,435.721,69.831,434.880,70.710L431.970,73.610C431.066,74.491,430.566,75.707,430.590,76.970L430.590,93.210C430.568,94.475,431.067,95.694,431.970,96.580L434.880,99.480C435.725,100.352,436.896,100.831,438.110,100.800L446.430,100.800C447.644,100.831,448.815,100.352,449.660,99.480L452.170,96.970L452.170,113.410L459.720,113.410L459.720,74.600L460.780,69.380L453.910,69.380ZM452.170,88.200C452.179,88.551,452.032,88.887,451.770,89.120L447.090,93.800C446.846,94.053,446.511,94.197,446.160,94.200L439.500,94.200C439.149,94.197,438.814,94.053,438.570,93.800L438.510,93.740C438.244,93.506,438.097,93.164,438.110,92.810L438.110,77.370C438.097,77.019,438.244,76.680,438.510,76.450L438.570,76.380C438.817,76.134,439.151,75.994,439.500,75.990L446.160,75.990C446.509,75.994,446.843,76.134,447.090,76.380L451.770,81.070C452.036,81.300,452.183,81.639,452.170,81.990Z"/></g></g><g id="shape-8d1dd960-ee2f-11ec-a602-31d3e7357c9e"><g class="fills" id="fills-8d1dd960-ee2f-11ec-a602-31d3e7357c9e"><path class="cls-1" rx="0" ry="0" d="M382.030,97.670C381.358,98.452,380.436,98.979,379.420,99.160C378.220,99.160,378.070,98.110,378.070,97.220C378.167,95.862,378.419,94.520,378.820,93.220L381.880,79.930C382.421,78.104,382.773,76.228,382.930,74.330C382.930,70.450,379.270,69.180,376.880,69.180C370.880,69.180,365.620,73.340,362.950,77.990L368.950,51.290L355.140,51.290L354.870,52.780L361.720,52.780L351.180,100.800L357.980,100.800L361.370,85.940C362.210,82.290,362.980,79.520,366.200,76.090C369.870,72.210,373.000,71.760,373.890,71.760C374.558,71.682,375.226,71.903,375.716,72.364C376.206,72.825,376.467,73.479,376.430,74.150C376.374,74.857,376.250,75.557,376.060,76.240L372.720,90.870C371.720,94.680,371.520,95.650,371.520,96.870C371.520,101.060,375.110,101.580,376.670,101.580C379.141,101.535,381.478,100.445,383.100,98.580C384.484,97.140,385.680,95.530,386.660,93.790L385.660,92.790C384.689,94.581,383.466,96.224,382.030,97.670ZZ"/></g></g><g id="shape-8d1e4e90-ee2f-11ec-a602-31d3e7357c9e"><g class="fills" id="fills-8d1e4e90-ee2f-11ec-a602-31d3e7357c9e"><path class="cls-1" rx="0" ry="0" d="M346.550,73.630C345.483,74.228,344.785,75.320,344.690,76.540C344.775,78.086,346.052,79.297,347.600,79.300C349.717,79.187,351.365,77.420,351.330,75.300C351.330,72.390,348.570,69.180,342.970,69.180C336.978,69.429,331.426,72.396,327.890,77.240C325.469,80.425,324.112,84.291,324.010,88.290C324.010,95.750,329.310,101.730,336.320,101.730C341.060,101.730,345.790,99.050,349.450,93.730L348.350,92.620C345.720,96.080,342.210,100.200,337.220,100.200C331.220,100.200,331.220,93.560,331.220,92.140C331.220,86.840,333.220,79.520,335.620,75.790C337.560,72.660,340.480,70.420,343.620,70.420C346.380,70.420,347.280,72.360,347.280,72.730C347.280,73.100,347.000,73.400,346.550,73.630ZZ"/></g></g><g id="shape-8d1e75a0-ee2f-11ec-a602-31d3e7357c9e"><g class="fills" id="fills-8d1e75a0-ee2f-11ec-a602-31d3e7357c9e"><path class="cls-1" rx="0" ry="0" d="M395.140,100.800L424.650,100.800L424.650,93.280L403.060,93.280L403.060,78.870L424.650,78.870L424.650,71.340L403.060,71.340L403.060,58.780L424.650,58.780L424.650,51.260L395.140,51.260L395.140,100.800ZZ"/></g></g><g id="shape-8d1eead0-ee2f-11ec-a602-31d3e7357c9e"><g class="fills" id="fills-8d1eead0-ee2f-11ec-a602-31d3e7357c9e"><path class="cls-1" rx="0" ry="0" d="M494.590,69.380L487.070,69.380L487.070,88.200C487.073,88.550,486.928,88.884,486.670,89.120L481.520,94.270C481.278,94.517,480.946,94.658,480.600,94.660L476.510,94.660C476.161,94.656,475.827,94.516,475.580,94.270L475.050,93.740C474.791,93.502,474.648,93.162,474.660,92.810L474.660,69.380L467.130,69.380L467.130,93.210C467.112,94.476,467.614,95.695,468.520,96.580L471.420,99.480C472.268,100.353,473.443,100.832,474.660,100.800L481.330,100.800C482.544,100.831,483.715,100.352,484.560,99.480L487.730,96.310L488.730,100.800L495.860,100.800L494.540,95.320Z"/></g></g><g id="shape-8d1fae20-ee2f-11ec-a602-31d3e7357c9e"><g class="fills" id="fills-8d1fae20-ee2f-11ec-a602-31d3e7357c9e"><path class="cls-1" rx="0" ry="0" d="M530.720,92.290L530.720,77.000C530.744,75.737,530.244,74.521,529.340,73.640L526.430,70.740C525.571,69.888,524.410,69.410,523.200,69.410L509.180,69.410C507.968,69.399,506.803,69.879,505.950,70.740L502.580,74.100L506.940,78.460L508.940,76.410C509.187,76.164,509.521,76.024,509.870,76.020L521.810,76.020C522.159,76.024,522.493,76.164,522.740,76.410L522.800,76.480C523.066,76.710,523.213,77.049,523.200,77.400L523.200,81.100L508.720,81.100C507.509,81.083,506.343,81.560,505.490,82.420L503.040,84.860C502.134,85.744,501.634,86.964,501.660,88.230L501.660,93.230C501.638,94.495,502.137,95.714,503.040,96.600L505.950,99.500C506.795,100.372,507.966,100.851,509.180,100.820L520.860,100.820C522.074,100.837,523.244,100.361,524.100,99.500L525.950,97.650L529.110,100.820L533.930,96.000L531.160,93.230C530.880,92.999,530.718,92.654,530.720,92.290ZZM523.200,90.510C523.209,90.861,523.062,91.197,522.800,91.430L520.430,93.800C520.186,94.053,519.851,94.197,519.500,94.200L510.500,94.200C510.149,94.197,509.814,94.053,509.570,93.800L509.510,93.740C509.244,93.506,509.097,93.164,509.110,92.810L509.110,88.590C509.100,88.239,509.246,87.902,509.510,87.670L509.570,87.600C509.816,87.351,510.150,87.208,510.500,87.200L523.170,87.200Z"/></g></g><g id="shape-8d1ffc40-ee2f-11ec-a602-31d3e7357c9e"><g class="fills" id="fills-8d1ffc40-ee2f-11ec-a602-31d3e7357c9e"><path class="cls-1" rx="0" ry="0" d="M326.460,72.360C326.460,70.560,324.890,69.150,322.650,69.150C317.350,69.150,313.650,76.240,312.570,78.330L314.440,70.040L301.220,70.040L300.850,71.540L307.640,71.540L300.850,100.800L307.570,100.800L309.730,91.540C312.050,81.910,313.090,79.450,315.850,75.640C316.680,74.520,318.020,72.640,318.990,72.640C319.510,72.640,319.660,73.010,319.990,73.460C320.589,74.745,321.863,75.582,323.280,75.620C325.045,75.566,326.450,74.125,326.460,72.360ZZ"/></g></g><g id="shape-8d207170-ee2f-11ec-a602-31d3e7357c9e"><g class="fills" id="fills-8d207170-ee2f-11ec-a602-31d3e7357c9e"><path class="cls-1" rx="0" ry="0" d="M293.570,97.220C292.818,98.144,291.748,98.754,290.570,98.930C289.310,98.930,289.010,98.040,289.010,97.070C289.286,94.779,289.707,92.508,290.270,90.270L295.050,70.000L288.310,70.000L287.420,73.810C287.029,72.740,286.368,71.789,285.500,71.050C284.020,69.774,282.124,69.084,280.170,69.110C272.760,69.110,263.060,77.990,263.060,89.410C263.060,97.630,268.760,101.660,273.570,101.660C279.280,101.660,282.160,97.030,283.050,95.610C283.350,99.610,285.570,101.510,288.240,101.510C292.310,101.510,295.710,97.190,297.670,93.690L296.670,92.690C295.860,94.341,294.816,95.867,293.570,97.220ZZM284.570,86.470C283.570,90.570,281.310,100.130,274.720,100.130C271.090,100.130,269.720,97.070,269.720,93.560C269.720,89.300,272.320,80.340,274.020,76.910C276.170,72.580,279.020,70.790,281.280,70.790C284.020,70.790,286.280,73.250,286.280,77.280C286.310,79.450,285.200,84.150,284.570,86.470ZZ"/></g></g></g></svg>