<svg xmlns:xlink="http://www.w3.org/1999/xlink" width="708.3" xmlns="http://www.w3.org/2000/svg" height="226.77" id="screenshot-8d29e750-ee2f-11ec-a602-31d3e7357c9e" viewBox="0 0 708.3 226.77" style="-webkit-print-color-adjust: exact;" fill="none" version="1.1"><g id="shape-8d29e750-ee2f-11ec-a602-31d3e7357c9e" rx="0" ry="0" style="fill: rgb(0, 0, 0);"><g id="shape-8d2a3570-ee2f-11ec-a602-31d3e7357c9e"><g class="fills" id="fills-8d2a3570-ee2f-11ec-a602-31d3e7357c9e"><path class="cls-1" rx="0" ry="0" d="M107.070,98.860C107.070,83.200,96.290,83.030,89.680,83.030L73.330,83.030L62.330,133.480L69.980,133.480C82.160,133.130,91.900,132.950,98.160,126.480C103.420,121.120,107.070,107.380,107.070,98.860ZZ"/></g></g><g id="shape-8d2ad1b0-ee2f-11ec-a602-31d3e7357c9e"><g class="fills" id="fills-8d2ad1b0-ee2f-11ec-a602-31d3e7357c9e"><path class="cls-1" rx="0" ry="0" d="M0.000,0.000L0.000,226.770L170.510,226.770L226.770,170.500L226.770,0.000ZZM128.820,202.210C124.587,203.482,120.190,204.125,115.770,204.120C92.290,204.120,91.240,183.590,90.550,172.120L89.850,160.120C89.500,154.730,89.150,147.770,84.850,142.720C80.550,137.670,74.580,137.510,69.710,137.330L61.710,137.330L48.490,198.560L64.490,198.560L63.800,202.220L13.310,202.220L14.180,198.560L29.180,198.560L53.710,83.060L37.320,83.060L38.320,79.410L91.030,79.410C98.510,79.410,104.030,79.410,110.030,81.150C126.030,85.840,127.250,99.410,127.250,104.460C127.356,111.564,124.599,118.412,119.600,123.460C109.160,134.410,91.240,135.630,82.540,136.150C111.420,144.850,112.120,160.680,112.290,179.150L112.290,184.720C112.460,190.280,112.640,192.890,113.680,194.980C115.194,198.087,118.407,200.000,121.860,199.850C123.600,199.850,124.120,199.680,128.860,198.630ZM210.900,170.520L138.970,170.520L138.970,161.160L210.900,161.160ZM210.900,142.910L138.970,143.060L138.970,133.690L210.900,133.690Z"/></g></g><g id="shape-8d2b6df0-ee2f-11ec-a602-31d3e7357c9e"><g class="fills" id="fills-8d2b6df0-ee2f-11ec-a602-31d3e7357c9e"><path class="cls-1" rx="0" ry="0" d="M348.440,138.210C342.320,137.990,337.240,142.210,336.990,147.130C336.780,151.040,339.140,153.080,343.430,156.910L345.360,158.630C347.000,160.050,348.930,161.840,348.810,164.020C348.710,166.020,346.430,169.580,340.610,169.370C337.550,169.270,335.250,167.910,335.280,167.310C335.295,166.991,335.444,166.693,335.690,166.490C336.474,165.789,336.955,164.810,337.030,163.760C337.146,163.008,336.922,162.243,336.417,161.672C335.913,161.102,335.181,160.786,334.420,160.810C333.589,160.787,332.786,161.110,332.203,161.701C331.619,162.293,331.306,163.100,331.340,163.930C331.190,166.930,335.340,170.550,340.990,170.740C348.300,171.000,353.710,166.220,353.990,160.670C354.220,156.160,350.920,153.490,348.700,151.670L345.760,149.310C343.890,147.820,342.030,146.170,342.160,143.770C342.300,141.070,345.010,139.280,348.370,139.400C350.460,139.470,352.870,140.230,352.820,141.210C352.786,141.503,352.634,141.770,352.400,141.950C351.885,142.468,351.561,143.144,351.480,143.870C351.428,144.531,351.662,145.183,352.123,145.659C352.584,146.135,353.228,146.391,353.890,146.360C354.636,146.409,355.370,146.151,355.920,145.644C356.470,145.138,356.788,144.428,356.800,143.680C356.960,140.760,353.610,138.390,348.440,138.210ZZ"/></g></g><g id="shape-8d2c3140-ee2f-11ec-a602-31d3e7357c9e"><g class="fills" id="fills-8d2c3140-ee2f-11ec-a602-31d3e7357c9e"><path class="cls-1" rx="0" ry="0" d="M688.940,145.430L688.940,145.430ZC689.251,145.110,689.582,144.966,689.930,144.960L699.830,144.960C700.178,144.966,700.509,145.110,700.750,145.360L703.610,148.210L708.300,143.520L704.470,139.690C703.625,138.818,702.454,138.339,701.240,138.370L688.540,138.370C687.326,138.339,686.155,138.818,685.310,139.690L682.410,142.600C681.499,143.477,680.995,144.695,681.020,145.960L681.020,151.380C681.111,153.683,682.829,155.595,685.110,155.930L699.500,157.840C700.169,157.924,700.675,158.486,700.690,159.160L700.690,161.800C700.700,162.154,700.554,162.494,700.290,162.730L700.230,162.790C699.986,163.043,699.651,163.187,699.300,163.190L689.470,163.190C689.119,163.187,688.784,163.043,688.540,162.790L685.710,159.960L681.020,164.640L684.850,168.470C685.695,169.342,686.866,169.821,688.080,169.790L700.750,169.790C701.967,169.822,703.142,169.343,703.990,168.470L706.890,165.570C707.800,164.687,708.303,163.467,708.280,162.200L708.280,156.390C708.189,154.087,706.471,152.175,704.190,151.840L689.730,149.920C689.059,149.840,688.550,149.276,688.540,148.600L688.540,146.360C688.528,146.006,688.675,145.665,688.940,145.430ZZ"/></g></g><g id="shape-8d2c5850-ee2f-11ec-a602-31d3e7357c9e"><g class="fills" id="fills-8d2c5850-ee2f-11ec-a602-31d3e7357c9e"><path class="cls-1" rx="0" ry="0" d="M659.840,126.790L666.500,126.790L666.500,169.780L674.030,169.780L674.030,120.190L659.840,120.190L659.840,126.790ZZ"/></g></g><g id="shape-8d2ca670-ee2f-11ec-a602-31d3e7357c9e"><g class="fills" id="fills-8d2ca670-ee2f-11ec-a602-31d3e7357c9e"><path class="cls-1" rx="0" ry="0" d="M332.050,145.140C332.050,140.960,328.050,138.140,322.850,138.140C317.192,138.307,311.859,140.821,308.130,145.080C305.250,148.567,303.655,152.938,303.610,157.460C303.610,165.300,308.910,170.680,315.460,170.680C319.460,170.680,324.230,168.630,328.670,162.770L327.730,161.770C324.130,165.640,320.970,169.070,316.340,169.070C310.450,169.070,310.450,162.950,310.450,161.450C310.390,159.488,310.613,157.528,311.110,155.630C317.180,155.890,332.050,154.030,332.050,145.140ZZM322.550,139.540C323.674,139.448,324.782,139.848,325.588,140.637C326.393,141.425,326.818,142.525,326.750,143.650C326.750,147.760,321.080,154.250,311.370,154.480C312.030,150.150,315.120,139.540,322.550,139.540ZZ"/></g></g><g id="shape-8d2d42b0-ee2f-11ec-a602-31d3e7357c9e"><g class="fills" id="fills-8d2d42b0-ee2f-11ec-a602-31d3e7357c9e"><path class="cls-1" rx="0" ry="0" d="M295.760,167.390C295.330,166.540,295.260,165.480,295.190,163.200L295.190,160.920C295.120,153.390,294.840,146.920,283.030,143.360C286.590,143.150,293.910,142.650,298.180,138.170C300.220,136.111,301.348,133.319,301.310,130.420C301.529,125.986,298.606,122.007,294.310,120.890C291.776,120.272,289.164,120.033,286.560,120.180L264.970,120.180L264.550,121.680L271.230,121.680L261.230,168.890L255.110,168.890L254.760,170.380L275.380,170.380L275.660,168.890L269.120,168.890L274.520,143.890L277.790,143.890C279.790,143.960,282.200,144.030,283.980,146.090C285.760,148.150,285.900,151.000,286.040,153.200L286.320,158.110C286.610,162.770,287.020,171.210,296.610,171.210C298.419,171.215,300.218,170.952,301.950,170.430L301.950,168.940C301.023,169.219,300.066,169.387,299.100,169.440C297.677,169.486,296.363,168.680,295.760,167.390ZZM274.760,142.300L279.240,121.680L285.920,121.680C288.620,121.680,293.030,121.750,293.030,128.150C293.030,131.630,291.540,137.250,289.400,139.450C286.840,142.080,282.860,142.150,277.880,142.300Z"/></g></g><g id="shape-8d2d90d0-ee2f-11ec-a602-31d3e7357c9e"><g class="fills" id="fills-8d2d90d0-ee2f-11ec-a602-31d3e7357c9e"><path class="cls-1" rx="0" ry="0" d="M379.380,138.130C373.722,138.297,368.389,140.811,364.660,145.070C361.764,148.555,360.154,152.929,360.100,157.460C360.100,165.300,365.400,170.680,371.940,170.680C375.940,170.680,380.720,168.630,385.160,162.770L384.220,161.770C380.620,165.650,377.460,169.070,372.830,169.070C366.940,169.070,366.940,162.950,366.940,161.450C366.880,159.488,367.103,157.528,367.600,155.630C373.710,155.850,388.600,153.990,388.600,145.100C388.610,140.960,384.610,138.130,379.380,138.130ZZM367.900,154.480C368.560,150.150,371.650,139.540,379.080,139.540C380.203,139.452,381.309,139.853,382.114,140.641C382.919,141.428,383.344,142.526,383.280,143.650C383.280,147.760,377.610,154.210,367.900,154.480ZZ"/></g></g><g id="shape-8d2e2d10-ee2f-11ec-a602-31d3e7357c9e"><g class="fills" id="fills-8d2e2d10-ee2f-11ec-a602-31d3e7357c9e"><path class="cls-1" rx="0" ry="0" d="M580.200,142.850L577.030,139.680C576.182,138.807,575.007,138.328,573.790,138.360L565.480,138.360C564.263,138.328,563.088,138.807,562.240,139.680L559.340,142.590C558.433,143.470,557.930,144.686,557.950,145.950L557.950,162.210C557.932,163.476,558.434,164.695,559.340,165.580L562.240,168.480C563.088,169.353,564.263,169.832,565.480,169.800L573.790,169.800C575.007,169.832,576.182,169.353,577.030,168.480L579.540,165.970L579.540,182.410L587.060,182.410L587.060,143.580L588.120,138.360L581.250,138.360ZM579.540,157.210C579.546,157.563,579.401,157.902,579.140,158.140L574.460,162.820C574.216,163.073,573.881,163.217,573.530,163.220L566.860,163.220C566.511,163.219,566.179,163.074,565.940,162.820L565.870,162.760C565.612,162.521,565.470,162.182,565.480,161.830L565.480,146.350C565.469,146.001,565.611,145.665,565.870,145.430L565.940,145.360C566.181,145.110,566.512,144.966,566.860,144.960L573.530,144.960C573.880,144.968,574.214,145.111,574.460,145.360L579.140,150.050C579.402,150.283,579.549,150.619,579.540,150.970Z"/></g></g><g id="shape-8d2ea240-ee2f-11ec-a602-31d3e7357c9e"><g class="fills" id="fills-8d2ea240-ee2f-11ec-a602-31d3e7357c9e"><path class="cls-1" rx="0" ry="0" d="M509.400,166.650C508.728,167.432,507.806,167.959,506.790,168.140C505.590,168.140,505.440,167.090,505.440,166.200C505.537,164.842,505.789,163.500,506.190,162.200L509.250,148.910C509.776,147.083,510.111,145.206,510.250,143.310C510.250,139.430,506.600,138.160,504.250,138.160C498.250,138.160,492.990,142.320,490.320,146.970L496.320,120.270L482.510,120.270L482.240,121.760L489.100,121.760L478.550,169.810L485.340,169.810L488.740,154.950C489.580,151.300,490.350,148.530,493.570,145.100C497.240,141.220,500.370,140.770,501.260,140.770C501.928,140.692,502.596,140.913,503.086,141.374C503.576,141.835,503.837,142.489,503.800,143.160C503.744,143.867,503.620,144.567,503.430,145.250L500.070,159.880C499.070,163.690,498.870,164.660,498.870,165.880C498.870,170.060,502.460,170.590,504.020,170.590C506.489,170.549,508.824,169.458,510.440,167.590C511.824,166.150,513.020,164.540,514.000,162.800L513.000,161.800C512.036,163.579,510.824,165.212,509.400,166.650ZZ"/></g></g><g id="shape-8d2ef060-ee2f-11ec-a602-31d3e7357c9e"><g class="fills" id="fills-8d2ef060-ee2f-11ec-a602-31d3e7357c9e"><path class="cls-1" rx="0" ry="0" d="M473.920,142.610C472.850,143.207,472.148,144.299,472.050,145.520C472.145,147.065,473.422,148.272,474.970,148.280C477.073,148.138,478.705,146.388,478.700,144.280C478.700,141.370,475.940,138.160,470.340,138.160C464.349,138.403,458.796,141.367,455.260,146.210C452.846,149.380,451.486,153.227,451.370,157.210C451.370,164.670,456.670,170.650,463.690,170.650C468.430,170.650,473.160,167.970,476.820,162.650L475.720,161.540C473.090,165.060,469.610,169.210,464.610,169.210C458.610,169.210,458.610,162.570,458.610,161.150C458.610,155.850,460.610,148.530,463.010,144.800C464.950,141.670,467.860,139.430,471.010,139.430C473.770,139.430,474.670,141.370,474.670,141.740C474.670,142.110,474.370,142.380,473.920,142.610ZZ"/></g></g><g id="shape-8d2f1770-ee2f-11ec-a602-31d3e7357c9e"><g class="fills" id="fills-8d2f1770-ee2f-11ec-a602-31d3e7357c9e"><path class="cls-1" rx="0" ry="0" d="M522.510,169.780L552.010,169.780L552.010,162.260L530.430,162.260L530.430,147.850L552.010,147.850L552.010,140.330L530.430,140.330L530.430,127.770L552.010,127.770L552.010,120.240L522.510,120.240L522.510,169.780ZZ"/></g></g><g id="shape-8d2f6590-ee2f-11ec-a602-31d3e7357c9e"><g class="fills" id="fills-8d2f6590-ee2f-11ec-a602-31d3e7357c9e"><path class="cls-1" rx="0" ry="0" d="M621.960,138.360L614.430,138.360L614.430,157.210C614.440,157.562,614.298,157.901,614.040,158.140L608.890,163.210C608.648,163.457,608.316,163.598,607.970,163.600L603.870,163.600C603.524,163.595,603.194,163.455,602.950,163.210L602.420,162.680C602.162,162.441,602.020,162.102,602.030,161.750L602.030,138.360L594.500,138.360L594.500,162.210C594.477,163.477,594.980,164.697,595.890,165.580L598.790,168.480C599.638,169.353,600.813,169.832,602.030,169.800L608.690,169.800C609.907,169.832,611.082,169.353,611.930,168.480L615.100,165.310L616.100,169.800L623.230,169.800L621.910,164.320Z"/></g></g><g id="shape-8d3001d0-ee2f-11ec-a602-31d3e7357c9e"><g class="fills" id="fills-8d3001d0-ee2f-11ec-a602-31d3e7357c9e"><path class="cls-1" rx="0" ry="0" d="M658.130,161.270L658.130,145.950C658.154,144.687,657.654,143.471,656.750,142.590L653.840,139.680C652.977,138.835,651.818,138.361,650.610,138.360L636.550,138.360C635.340,138.348,634.175,138.823,633.320,139.680L629.950,143.050L634.310,147.410L636.310,145.360C636.556,145.111,636.890,144.968,637.240,144.960L649.180,144.960C649.530,144.968,649.864,145.111,650.110,145.360L650.170,145.430C650.436,145.660,650.583,145.999,650.570,146.350L650.570,150.050L636.090,150.050C634.876,150.033,633.706,150.509,632.850,151.370L630.410,153.810C629.506,154.691,629.006,155.907,629.030,157.170L629.030,162.170C629.008,163.435,629.507,164.654,630.410,165.540L633.320,168.440C634.165,169.312,635.336,169.791,636.550,169.760L648.230,169.760C649.444,169.777,650.614,169.301,651.470,168.440L653.310,166.590L656.480,169.760L661.300,164.940L658.530,162.210C658.261,161.974,658.114,161.628,658.130,161.270ZZM650.610,159.490C650.619,159.841,650.472,160.177,650.210,160.410L647.840,162.780C647.596,163.033,647.261,163.177,646.910,163.180L637.910,163.180C637.559,163.177,637.224,163.033,636.980,162.780L636.920,162.720C636.656,162.484,636.510,162.144,636.520,161.790L636.520,157.570C636.507,157.219,636.654,156.880,636.920,156.650L636.980,156.580C637.226,156.331,637.560,156.188,637.910,156.180L650.610,156.180Z"/></g></g><g id="shape-8d304ff0-ee2f-11ec-a602-31d3e7357c9e"><g class="fills" id="fills-8d304ff0-ee2f-11ec-a602-31d3e7357c9e"><path class="cls-1" rx="0" ry="0" d="M453.820,141.340C453.820,139.540,452.260,138.130,450.020,138.130C444.720,138.130,441.020,145.220,439.940,147.310L441.800,139.020L428.610,139.020L428.240,140.520L435.030,140.520L428.240,169.780L434.960,169.780L437.120,160.520C439.440,150.890,440.480,148.430,443.240,144.620C444.060,143.500,445.410,141.620,446.380,141.620C446.900,141.620,447.050,141.990,447.380,142.440C447.973,143.725,449.245,144.563,450.660,144.600C452.417,144.536,453.810,143.098,453.820,141.340ZZ"/></g></g><g id="shape-8d309e10-ee2f-11ec-a602-31d3e7357c9e"><g class="fills" id="fills-8d309e10-ee2f-11ec-a602-31d3e7357c9e"><path class="cls-1" rx="0" ry="0" d="M420.940,166.210C420.187,167.132,419.118,167.742,417.940,167.920C416.680,167.920,416.380,167.030,416.380,166.060C416.656,163.769,417.077,161.498,417.640,159.260L422.380,139.030L415.640,139.030L414.750,142.840C414.355,141.772,413.695,140.822,412.830,140.080C411.347,138.802,409.447,138.112,407.490,138.140C400.090,138.140,390.390,147.020,390.390,158.440C390.390,166.660,396.090,170.690,400.900,170.690C406.610,170.690,409.490,166.060,410.380,164.640C410.680,168.640,412.900,170.540,415.560,170.540C419.640,170.540,423.030,166.220,425.000,162.720L424.000,161.720C423.199,163.355,422.169,164.867,420.940,166.210ZZM411.940,155.460C410.940,159.560,408.680,169.120,402.090,169.120C398.460,169.120,397.090,166.060,397.090,162.550C397.090,158.290,399.680,149.330,401.390,145.900C403.540,141.570,406.390,139.780,408.640,139.780C411.380,139.780,413.640,142.240,413.640,146.270C413.680,148.430,412.610,153.130,411.940,155.460ZZ"/></g></g></g></svg>