<svg xmlns:xlink="http://www.w3.org/1999/xlink" width="566.93" xmlns="http://www.w3.org/2000/svg" height="77.79" id="screenshot-8d4314a0-ee2f-11ec-a602-31d3e7357c9e" viewBox="0 0 566.93 77.79" style="-webkit-print-color-adjust: exact;" fill="none" version="1.1"><g id="shape-8d4314a0-ee2f-11ec-a602-31d3e7357c9e" rx="0" ry="0" style="fill: rgb(0, 0, 0);"><g id="shape-8d43b0e0-ee2f-11ec-a602-31d3e7357c9e"><g class="fills" id="fills-8d43b0e0-ee2f-11ec-a602-31d3e7357c9e"><path class="cls-1" rx="0" ry="0" d="M117.120,22.530C109.480,22.260,103.120,27.530,102.810,33.690C102.550,38.570,105.510,41.120,110.810,45.910L113.220,48.060C115.280,49.830,117.690,52.060,117.540,54.800C117.410,57.330,114.540,61.750,107.290,61.490C103.470,61.360,100.580,59.660,100.620,58.900C100.647,58.509,100.835,58.147,101.140,57.900C102.121,57.020,102.723,55.794,102.820,54.480C102.963,53.539,102.680,52.582,102.049,51.870C101.417,51.157,100.502,50.761,99.550,50.790C97.130,50.710,95.820,52.540,95.700,54.700C95.510,58.450,100.770,62.960,107.760,63.210C116.900,63.530,123.660,57.560,124.020,50.620C124.320,44.990,120.190,41.620,117.410,39.380L113.740,36.430C111.400,34.570,109.080,32.510,109.240,29.510C109.410,26.130,112.800,23.900,117.000,24.040C119.610,24.140,122.620,25.090,122.560,26.310C122.522,26.676,122.334,27.009,122.040,27.230C121.394,27.875,120.988,28.722,120.890,29.630C120.823,30.455,121.114,31.269,121.687,31.866C122.261,32.462,123.063,32.784,123.890,32.750C124.822,32.810,125.739,32.486,126.427,31.854C127.114,31.221,127.513,30.334,127.530,29.400C127.780,25.730,123.570,22.790,117.120,22.530ZZ"/></g></g><g id="shape-8d447430-ee2f-11ec-a602-31d3e7357c9e"><g class="fills" id="fills-8d447430-ee2f-11ec-a602-31d3e7357c9e"><path class="cls-1" rx="0" ry="0" d="M561.810,39.560L543.740,37.160C542.902,37.060,542.269,36.354,542.260,35.510L542.260,32.710C542.245,32.273,542.425,31.852,542.750,31.560L542.830,31.470C543.136,31.159,543.554,30.982,543.990,30.980L556.360,30.980C556.797,30.980,557.215,31.157,557.520,31.470L561.070,35.020L566.920,29.160L562.140,24.380C561.094,23.298,559.645,22.700,558.140,22.730L542.260,22.730C540.738,22.687,539.268,23.286,538.210,24.380L534.580,28.010C533.448,29.111,532.822,30.631,532.850,32.210L532.850,38.980C532.968,41.860,535.118,44.250,537.970,44.670L555.970,47.070C556.812,47.166,557.450,47.873,557.460,48.720L557.460,52.020C557.469,52.458,557.287,52.878,556.960,53.170L556.880,53.250C556.576,53.566,556.158,53.746,555.720,53.750L543.410,53.750C542.975,53.743,542.561,53.563,542.260,53.250L538.710,49.710L532.850,55.560L537.640,60.350C538.686,61.431,540.135,62.029,541.640,62.000L557.480,62.000C558.985,62.029,560.434,61.431,561.480,60.350L565.110,56.720C566.244,55.616,566.871,54.092,566.840,52.510L566.840,45.250C566.730,42.399,564.626,40.019,561.810,39.560ZZ"/></g></g><g id="shape-8d449b40-ee2f-11ec-a602-31d3e7357c9e"><g class="fills" id="fills-8d449b40-ee2f-11ec-a602-31d3e7357c9e"><path class="cls-1" rx="0" ry="0" d="M506.380,8.250L514.710,8.250L514.710,62.000L524.120,62.000L524.120,0.000L506.380,0.000L506.380,8.250ZZ"/></g></g><g id="shape-8d44e960-ee2f-11ec-a602-31d3e7357c9e"><g class="fills" id="fills-8d44e960-ee2f-11ec-a602-31d3e7357c9e"><path class="cls-1" rx="0" ry="0" d="M76.950,61.160C69.590,61.160,69.590,53.510,69.590,51.640C69.512,49.186,69.791,46.733,70.420,44.360C78.050,44.640,96.640,42.310,96.640,31.200C96.640,25.980,91.640,22.430,85.140,22.430C78.067,22.639,71.400,25.784,66.740,31.110C63.119,35.467,61.107,40.936,61.040,46.600C61.040,56.400,67.660,63.120,75.850,63.120C80.850,63.120,86.850,60.560,92.370,53.230L91.190,52.030C86.660,56.880,82.740,61.160,76.950,61.160ZZM84.770,24.160C86.174,24.047,87.557,24.549,88.562,25.535C89.567,26.521,90.096,27.895,90.010,29.300C90.010,34.430,82.930,42.550,70.790,42.830C71.660,37.450,75.480,24.200,84.770,24.160ZZ"/></g></g><g id="shape-8d453780-ee2f-11ec-a602-31d3e7357c9e"><g class="fills" id="fills-8d453780-ee2f-11ec-a602-31d3e7357c9e"><path class="cls-1" rx="0" ry="0" d="M51.280,59.020C50.740,57.950,50.660,56.620,50.570,53.770L50.570,50.930C50.480,41.510,50.120,33.420,35.370,28.980C39.810,28.710,48.970,28.090,54.300,22.490C56.851,19.916,58.260,16.424,58.210,12.800C58.210,10.220,57.590,3.290,49.410,0.890C46.410,0.000,43.540,0.000,39.720,0.000L12.790,0.000L12.260,1.870L20.660,1.870L8.130,60.870L0.490,60.870L0.050,62.740L25.820,62.740L26.180,60.870L18.000,60.870L24.660,29.600L28.750,29.600C31.240,29.690,34.260,29.780,36.480,32.350C38.700,34.920,38.880,38.490,39.060,41.240L39.420,47.370C39.770,53.240,40.310,63.730,52.300,63.730C54.560,63.724,56.807,63.387,58.970,62.730L58.970,60.860C57.814,61.216,56.618,61.425,55.410,61.480C53.669,61.543,52.053,60.581,51.280,59.020ZZM25.060,27.640L30.660,1.870L39.010,1.870C42.390,1.870,47.900,1.960,47.900,9.960C47.900,14.310,46.030,21.330,43.370,24.090C40.170,27.380,35.190,27.460,28.970,27.640Z"/></g></g><g id="shape-8d4585a0-ee2f-11ec-a602-31d3e7357c9e"><g class="fills" id="fills-8d4585a0-ee2f-11ec-a602-31d3e7357c9e"><path class="cls-1" rx="0" ry="0" d="M147.660,61.160C140.300,61.160,140.300,53.510,140.300,51.640C140.222,49.186,140.501,46.733,141.130,44.360C148.760,44.640,167.350,42.310,167.350,31.200C167.350,25.980,162.350,22.430,155.850,22.430C148.777,22.641,142.111,25.785,137.450,31.110C133.829,35.467,131.817,40.936,131.750,46.600C131.750,56.400,138.370,63.120,146.560,63.120C151.560,63.120,157.560,60.560,163.070,53.230L161.900,52.040C157.350,56.880,153.400,61.160,147.660,61.160ZZM155.480,24.160C156.884,24.047,158.267,24.549,159.272,25.535C160.277,26.521,160.806,27.895,160.720,29.300C160.720,34.430,153.640,42.550,141.500,42.830C142.270,37.450,146.140,24.200,155.480,24.160ZZ"/></g></g><g id="shape-8d45fad0-ee2f-11ec-a602-31d3e7357c9e"><g class="fills" id="fills-8d45fad0-ee2f-11ec-a602-31d3e7357c9e"><path class="cls-1" rx="0" ry="0" d="M406.820,28.340L402.820,24.340C401.776,23.254,400.325,22.656,398.820,22.690L388.420,22.690C386.915,22.660,385.466,23.258,384.420,24.340L380.790,27.970C379.658,29.071,379.032,30.591,379.060,32.170L379.060,52.470C379.034,54.051,379.660,55.574,380.790,56.680L384.420,60.310C385.469,61.388,386.916,61.986,388.420,61.960L398.820,61.960C400.325,61.989,401.774,61.391,402.820,60.310L405.960,57.170L405.960,77.790L415.360,77.790L415.360,29.250L416.680,22.730L408.100,22.730ZM406.000,46.240C406.011,46.681,405.828,47.105,405.500,47.400L399.660,53.250C399.359,53.563,398.945,53.743,398.510,53.750L390.160,53.750C389.722,53.746,389.304,53.566,389.000,53.250L388.920,53.170C388.593,52.878,388.411,52.458,388.420,52.020L388.420,32.710C388.408,32.272,388.591,31.850,388.920,31.560L389.000,31.470C389.305,31.157,389.723,30.980,390.160,30.980L398.490,30.980C398.923,30.983,399.338,31.159,399.640,31.470L405.500,37.330C405.828,37.625,406.011,38.049,406.000,38.490Z"/></g></g><g id="shape-8d467000-ee2f-11ec-a602-31d3e7357c9e"><g class="fills" id="fills-8d467000-ee2f-11ec-a602-31d3e7357c9e"><path class="cls-1" rx="0" ry="0" d="M318.320,58.080C317.480,58.920,316.180,59.950,315.060,59.950C313.570,59.950,313.380,58.640,313.380,57.520C313.501,55.824,313.813,54.146,314.310,52.520L318.140,35.910C318.814,33.628,319.250,31.282,319.440,28.910C319.440,24.060,314.870,22.470,311.890,22.470C304.420,22.470,297.810,27.670,294.480,33.470L301.980,0.100L284.710,0.100L284.370,1.970L292.960,1.970L279.760,62.030L288.260,62.030L292.500,43.460C293.500,38.880,294.500,35.460,298.500,31.140C303.080,26.290,306.990,25.730,308.110,25.730C308.948,25.631,309.787,25.908,310.401,26.487C311.015,27.066,311.340,27.888,311.290,28.730C311.218,29.616,311.061,30.494,310.820,31.350L306.660,49.590C305.450,54.350,305.170,55.590,305.170,57.050C305.170,62.280,309.650,62.930,311.600,62.930C314.675,62.877,317.582,61.521,319.600,59.200C321.331,57.396,322.827,55.380,324.050,53.200L322.830,51.970C321.630,54.214,320.110,56.272,318.320,58.080ZZ"/></g></g><g id="shape-8d469710-ee2f-11ec-a602-31d3e7357c9e"><g class="fills" id="fills-8d469710-ee2f-11ec-a602-31d3e7357c9e"><path class="cls-1" rx="0" ry="0" d="M262.310,61.250C254.850,61.250,254.850,52.950,254.850,51.170C254.850,44.550,257.370,35.400,260.350,30.740C262.780,26.820,266.420,24.020,270.350,24.020C273.800,24.020,274.920,26.440,274.920,26.910C274.920,27.560,274.550,27.750,273.990,28.030C272.656,28.782,271.780,30.144,271.650,31.670C271.761,33.601,273.356,35.113,275.290,35.120C277.940,34.986,280.007,32.773,279.960,30.120C279.960,26.480,276.510,22.470,269.510,22.470C262.026,22.772,255.087,26.468,250.660,32.510C247.635,36.491,245.935,41.321,245.800,46.320C245.800,55.650,252.430,63.120,261.200,63.120C267.120,63.120,273.040,59.770,277.610,53.120L276.220,51.790C272.940,56.100,268.550,61.250,262.310,61.250ZZ"/></g></g><g id="shape-8d46e530-ee2f-11ec-a602-31d3e7357c9e"><g class="fills" id="fills-8d46e530-ee2f-11ec-a602-31d3e7357c9e"><path class="cls-1" rx="0" ry="0" d="M334.720,62.000L371.600,62.000L371.600,52.590L344.620,52.590L344.620,34.580L371.600,34.580L371.600,25.180L344.620,25.180L344.620,9.470L371.600,9.470L371.600,0.070L334.720,0.070L334.720,62.000ZZ"/></g></g><g id="shape-8d470c40-ee2f-11ec-a602-31d3e7357c9e"><g class="fills" id="fills-8d470c40-ee2f-11ec-a602-31d3e7357c9e"><path class="cls-1" rx="0" ry="0" d="M459.030,22.730L449.660,22.730L449.660,46.240C449.671,46.681,449.488,47.105,449.160,47.400L442.660,53.790C442.356,54.106,441.938,54.286,441.500,54.290L436.390,54.290C435.955,54.283,435.541,54.103,435.240,53.790L434.570,53.130C434.246,52.837,434.067,52.417,434.080,51.980L434.080,22.730L424.660,22.730L424.660,52.510C424.633,54.093,425.263,55.617,426.400,56.720L430.030,60.350C431.076,61.431,432.525,62.029,434.030,62.000L442.360,62.000C443.865,62.029,445.314,61.431,446.360,60.350L450.360,56.350L451.680,61.960L460.660,61.960L459.010,55.110Z"/></g></g><g id="shape-8d478170-ee2f-11ec-a602-31d3e7357c9e"><g class="fills" id="fills-8d478170-ee2f-11ec-a602-31d3e7357c9e"><path class="cls-1" rx="0" ry="0" d="M504.240,51.360L504.240,32.210C504.268,30.631,503.642,29.111,502.510,28.010L498.880,24.380C497.811,23.332,496.377,22.740,494.880,22.730L477.260,22.730C475.760,22.724,474.320,23.318,473.260,24.380L469.050,28.590L474.500,34.030L477.060,31.470C477.362,31.159,477.777,30.983,478.210,30.980L493.140,30.980C493.577,30.980,493.995,31.157,494.300,31.470L494.380,31.560C494.709,31.850,494.892,32.272,494.880,32.710L494.880,37.330L476.660,37.330C475.160,37.326,473.721,37.920,472.660,38.980L469.610,42.030C468.480,43.136,467.854,44.659,467.880,46.240L467.880,52.510C467.854,54.091,468.480,55.614,469.610,56.720L473.240,60.350C474.289,61.428,475.736,62.026,477.240,62.000L491.850,62.000C493.350,62.006,494.790,61.412,495.850,60.350L498.160,58.040L502.160,62.040L508.160,56.040L504.700,52.570C504.372,52.257,504.202,51.812,504.240,51.360ZZM494.840,49.130C494.849,49.568,494.667,49.988,494.340,50.280L491.340,53.280C491.039,53.593,490.625,53.773,490.190,53.780L479.000,53.780C478.562,53.776,478.144,53.596,477.840,53.280L477.760,53.200C477.433,52.908,477.251,52.488,477.260,52.050L477.260,46.790C477.249,46.349,477.432,45.925,477.760,45.630L477.840,45.550C478.144,45.234,478.562,45.054,479.000,45.050L494.840,45.050Z"/></g></g><g id="shape-8d47a880-ee2f-11ec-a602-31d3e7357c9e"><g class="fills" id="fills-8d47a880-ee2f-11ec-a602-31d3e7357c9e"><path class="cls-1" rx="0" ry="0" d="M248.860,26.440C248.860,24.200,246.860,22.440,244.100,22.440C237.470,22.440,232.900,31.310,231.500,33.920L233.830,23.560L217.310,23.560L216.850,25.430L225.340,25.430L216.850,62.010L225.250,62.010L227.950,50.440C230.850,38.440,232.150,35.320,235.600,30.560C236.600,29.160,238.310,26.830,239.520,26.830C240.180,26.830,240.360,27.290,240.740,27.830C241.477,29.442,243.068,30.494,244.840,30.540C247.071,30.491,248.855,28.671,248.860,26.440ZZ"/></g></g><g id="shape-8d47f6a0-ee2f-11ec-a602-31d3e7357c9e"><g class="fills" id="fills-8d47f6a0-ee2f-11ec-a602-31d3e7357c9e"><path class="cls-1" rx="0" ry="0" d="M207.750,57.520C206.260,59.010,204.970,59.660,204.040,59.660C202.470,59.660,202.100,58.550,202.100,57.330C202.444,54.470,202.969,51.634,203.670,48.840L209.600,23.550L201.170,23.550L200.060,28.310C199.569,26.973,198.742,25.785,197.660,24.860C195.809,23.262,193.436,22.397,190.990,22.430C181.740,22.430,169.610,33.540,169.610,47.810C169.610,58.080,176.740,63.120,182.750,63.120C189.880,63.120,193.490,57.330,194.600,55.560C194.970,60.560,197.750,62.930,201.080,62.930C206.170,62.930,210.420,57.530,212.880,53.150L211.660,51.920C210.634,53.966,209.317,55.852,207.750,57.520ZZM196.550,44.080C195.340,49.210,192.470,61.160,184.240,61.160C179.700,61.160,177.940,57.330,177.940,52.950C177.940,47.630,181.180,36.430,183.310,32.130C185.990,26.720,189.600,24.480,192.380,24.480C195.810,24.480,198.670,27.560,198.670,32.600C198.660,35.310,197.290,41.190,196.550,44.080ZZ"/></g></g></g></svg>