<svg xmlns:xlink="http://www.w3.org/1999/xlink" width="566.93" xmlns="http://www.w3.org/2000/svg" height="357.9" id="screenshot-8d4c1550-ee2f-11ec-a602-31d3e7357c9e" viewBox="0 0 566.93 357.9" style="-webkit-print-color-adjust: exact;" fill="none" version="1.1"><g id="shape-8d4c1550-ee2f-11ec-a602-31d3e7357c9e" rx="0" ry="0" style="fill: rgb(0, 0, 0);"><g id="shape-8d4c3c60-ee2f-11ec-a602-31d3e7357c9e"><g class="fills" id="fills-8d4c3c60-ee2f-11ec-a602-31d3e7357c9e"><path class="cls-1" rx="0" ry="0" d="M566.930,155.830L566.930,155.590L360.530,155.590L360.530,155.830L360.530,155.830L360.530,182.710L566.930,182.280L566.930,155.830ZL566.930,155.830ZZ"/></g></g><g id="shape-8d4c8a80-ee2f-11ec-a602-31d3e7357c9e"><g class="fills" id="fills-8d4c8a80-ee2f-11ec-a602-31d3e7357c9e"><path class="cls-1" rx="0" ry="0" d="M287.990,331.450C284.990,325.450,284.490,317.970,283.990,302.000L283.990,286.000C283.490,233.090,281.500,187.670,198.650,162.720C223.600,161.220,275.010,157.720,304.960,126.280C324.420,106.280,326.960,84.360,326.960,71.880C326.960,57.410,323.460,18.470,277.540,5.000C260.540,0.000,244.600,0.000,223.140,0.000L71.870,0.000L68.870,10.480L115.780,10.480L45.420,341.930L2.520,341.930L0.020,352.410L144.740,352.410L146.740,341.930L100.820,341.930L138.750,166.240L161.750,166.240C175.750,166.740,192.700,167.240,205.180,181.710C217.660,196.180,218.650,216.150,219.650,231.620L221.650,266.060C223.650,299.000,226.650,357.900,294.020,357.900C306.698,357.913,319.310,356.063,331.450,352.410L331.450,341.930C317.970,344.930,316.450,345.420,311.450,345.420C299.520,345.420,291.520,338.930,287.990,331.450ZZM140.750,155.260L172.190,10.520L219.110,10.520C238.110,10.520,269.020,11.020,269.020,55.940C269.020,80.390,258.540,119.820,243.570,135.300C225.570,153.760,197.650,154.300,162.710,155.300Z"/></g></g><g id="shape-8d4cd8a0-ee2f-11ec-a602-31d3e7357c9e"><g class="fills" id="fills-8d4cd8a0-ee2f-11ec-a602-31d3e7357c9e"><path class="cls-1" rx="0" ry="0" d="M566.930,234.390L360.530,234.390L360.530,234.630L360.530,234.630L360.530,261.510L566.930,261.510L566.930,234.630L566.930,234.630L566.930,234.390ZZ"/></g></g></g></svg>